<?xml version="1.0" standalone="no"?>
<!DOCTYPE svg PUBLIC "-//W3C//DTD SVG 20010904//EN"
 "http://www.w3.org/TR/2001/REC-SVG-20010904/DTD/svg10.dtd">
<svg version="1.0" xmlns="http://www.w3.org/2000/svg"
 width="312.000000pt" height="161.000000pt" viewBox="0 0 312.000000 161.000000"
 preserveAspectRatio="xMidYMid meet">
<metadata>
Created by potrace 1.16, written by Peter Selinger 2001-2019
</metadata>
<g transform="translate(0.000000,161.000000) scale(0.100000,-0.100000)"
fill="#000000" stroke="none">
<path d="M435 1600 c-3 -5 -3 -16 1 -22 6 -10 4 -10 -8 0 -14 11 -17 10 -22
-5 -3 -10 -2 -33 3 -51 6 -18 6 -30 2 -27 -10 6 -20 -75 -17 -133 3 -45 -16
-55 -22 -11 -2 13 -13 32 -25 41 -23 19 -52 24 -42 9 3 -5 1 -12 -4 -15 -5 -3
-12 -31 -16 -61 -3 -30 -11 -55 -16 -55 -14 0 -89 -71 -101 -95 -9 -16 -8 -18
3 -7 7 6 19 12 27 12 8 0 10 -5 6 -12 -6 -10 -5 -10 8 -1 8 7 18 10 22 6 4 -4
-4 -13 -16 -19 -20 -11 -18 -12 22 -8 35 5 42 3 30 -6 -12 -9 -13 -12 -1 -17
10 -4 7 -11 -11 -27 -13 -11 -18 -17 -11 -12 10 6 12 5 8 -7 -4 -8 -2 -18 4
-22 6 -3 11 -13 11 -22 0 -13 -5 -12 -24 6 -22 20 -24 21 -20 5 2 -11 -3 -28
-11 -39 -13 -16 -26 -20 -65 -18 -38 2 -50 -1 -50 -12 0 -8 5 -15 10 -15 6 0
10 -5 10 -11 0 -8 -5 -8 -15 1 -8 7 -21 10 -29 7 -8 -3 -17 -1 -19 6 -2 7 -3
0 -1 -15 4 -30 -10 -38 -20 -13 -3 8 -12 15 -21 15 -11 0 -15 -11 -15 -41 0
-27 4 -38 11 -33 8 5 8 1 0 -14 -15 -28 -14 -37 3 -23 11 9 14 6 18 -18 3 -21
1 -28 -9 -24 -7 3 -13 0 -13 -5 0 -6 9 -14 20 -17 11 -3 20 -11 20 -16 0 -5 6
-8 13 -6 7 1 12 -9 13 -26 1 -32 14 -50 14 -20 0 16 8 22 32 26 47 6 58 -1 58
-37 l1 -31 14 39 c7 21 11 45 8 54 -5 11 -3 13 7 7 7 -4 25 -9 39 -10 14 -1
31 -3 36 -3 6 -1 9 -25 7 -54 -2 -39 0 -49 7 -38 6 8 11 32 11 53 l0 37 88 0
c60 0 82 3 72 10 -13 8 -13 10 2 10 9 0 20 -4 23 -10 3 -5 30 -10 60 -10 l53
0 -15 -39 c-14 -36 -18 -39 -39 -31 -19 8 -28 5 -44 -13 -26 -27 -10 -34 24
-11 24 15 26 15 26 0 0 -9 -8 -16 -19 -16 -10 0 -21 -6 -24 -13 -3 -8 7 -12
31 -12 23 0 37 -5 39 -15 4 -12 3 -12 -5 -1 -11 16 -15 11 -49 -62 -16 -35
-20 -53 -13 -70 l9 -22 7 23 c3 12 11 22 16 22 5 0 6 5 3 10 -4 6 7 8 29 5 33
-4 36 -2 36 21 0 29 19 53 38 46 6 -2 19 4 28 12 18 19 34 13 34 -12 0 -11 8
-18 20 -18 23 0 23 1 10 26 -7 14 -5 19 10 23 11 3 24 16 29 29 9 22 10 22 16
-9 4 -18 11 -30 15 -28 5 3 11 -1 13 -7 4 -10 6 -10 6 0 1 7 6 10 11 7 6 -3
10 1 10 10 0 9 5 13 10 10 6 -3 10 0 10 7 0 8 10 14 22 15 11 1 25 8 30 15 5
8 6 -1 3 -22 -4 -26 -3 -30 3 -15 l9 20 5 -20 c3 -13 8 -2 12 28 7 42 26 76
26 47 0 -6 4 -9 9 -5 5 3 13 1 16 -5 4 -6 1 -9 -6 -8 -6 2 -14 -3 -17 -11 -3
-10 0 -12 12 -8 10 4 15 3 11 -3 -3 -6 -3 -15 1 -22 5 -8 10 -6 15 8 6 15 8
13 8 -11 1 -23 4 -26 11 -15 7 12 11 10 19 -10 5 -14 10 -19 10 -12 1 8 7 12
14 9 6 -2 17 5 24 17 11 20 12 19 14 -14 2 -33 2 -33 9 10 4 28 8 35 8 19 2
-25 32 -64 32 -41 0 6 3 18 7 28 5 13 3 15 -7 9 -9 -5 -11 -4 -6 4 9 14 -10
67 -32 93 -13 16 -13 18 3 24 15 6 345 0 680 -11 44 -2 305 -8 580 -14 275 -6
548 -13 608 -17 l107 -6 0 36 0 36 -169 0 c-166 0 -169 0 -176 23 -6 18 -8 19
-12 5 -5 -21 -33 -32 -33 -13 0 12 -5 12 -35 -1 -40 -16 -182 -19 -205 -3 -11
7 -3 8 30 4 25 -3 61 -1 80 4 25 6 -11 9 -122 8 -87 -1 -158 -5 -158 -9 0 -11
-247 -10 -254 0 -3 5 -73 10 -157 11 -95 1 -149 -1 -145 -7 8 -13 -67 -18
-190 -13 -58 2 -91 6 -83 11 7 5 -24 7 -71 4 -274 -18 -374 -12 -376 19 -1 12
-1 13 3 2 6 -20 43 -19 43 1 0 11 6 15 20 11 16 -4 20 0 20 19 0 18 -10 31
-36 46 -42 25 -59 60 -42 88 10 16 9 23 -10 43 -12 13 -22 31 -22 40 0 9 -4
17 -8 17 -11 0 -54 -36 -53 -44 3 -20 -1 -26 -14 -26 -8 0 -15 -6 -15 -12 0
-7 -5 -5 -11 5 -14 24 -42 23 -34 -2 7 -22 -14 -40 -25 -21 -6 9 -9 9 -12 0
-2 -7 -13 -9 -31 -5 -26 7 -38 25 -17 25 6 0 8 11 4 26 -5 19 -4 25 5 20 6 -4
11 -2 11 5 0 7 6 5 14 -6 12 -16 13 -12 11 38 -1 45 -9 68 -40 119 -73 121
-89 130 -136 81 l-34 -36 27 7 c24 5 27 3 25 -14 -2 -11 -7 -23 -11 -27 -4 -5
-6 -2 -4 6 4 17 -80 25 -99 9 -11 -9 -12 -7 -7 8 4 12 -8 5 -34 -20 -22 -21
-46 -36 -52 -34 -9 3 -8 8 3 20 9 8 13 19 9 23 -4 5 -2 6 3 2 17 -9 39 9 29
24 -15 25 -13 41 4 34 9 -3 13 -3 10 1 -13 12 12 44 47 58 23 10 33 20 29 29
-3 8 2 17 10 20 19 7 22 -9 4 -17 -7 -4 -3 -4 10 -2 12 2 23 0 23 -5 1 -5 2
-13 3 -19 1 -14 13 -17 23 -6 5 5 2 6 -6 1 -9 -5 -12 -4 -8 3 4 5 16 8 27 5
21 -6 28 11 9 23 -8 5 -6 10 5 16 9 5 16 16 16 23 0 14 -23 20 -63 17 -11 -1
-15 2 -11 9 10 16 -24 -4 -60 -35 -16 -15 -32 -24 -35 -21 -3 4 0 10 8 14 7 5
11 17 10 27 -2 11 0 25 5 33 5 7 10 32 11 55 1 22 6 53 10 69 7 26 6 27 -29
27 -32 0 -36 -3 -36 -25 0 -14 -5 -25 -11 -25 -7 0 -9 10 -7 25 4 17 1 25 -9
25 -11 0 -14 -7 -9 -27 l6 -28 -21 28 c-21 28 -43 35 -54 17z m171 -486 c-3
-7 2 -18 9 -24 8 -7 12 -17 8 -24 -4 -6 2 -4 12 4 17 14 18 14 6 -9 -8 -15 -9
-21 -2 -17 7 5 11 -3 11 -21 0 -19 3 -24 9 -14 11 17 25 -4 15 -21 -5 -8 -1
-8 10 1 15 13 19 13 27 0 5 -8 9 -21 10 -29 1 -8 5 -1 9 15 4 17 8 22 9 13 0
-10 6 -18 12 -18 5 0 7 5 4 10 -7 12 -3 12 19 4 13 -5 14 -9 5 -20 -13 -16 2
-19 17 -4 5 5 15 6 24 0 11 -7 3 -14 -35 -31 -50 -22 -105 -61 -107 -76 0 -4
-5 -18 -11 -30 -9 -21 -17 -23 -84 -23 -54 0 -73 3 -73 13 0 8 -11 40 -24 73
-23 55 -26 86 -6 54 15 -25 24 40 12 87 -16 58 -15 80 2 80 10 0 12 -5 7 -16
-4 -9 -5 -27 -1 -41 l6 -25 8 23 c9 26 21 28 34 6 8 -14 11 -11 21 16 6 18 11
44 11 58 0 21 2 23 15 12 9 -7 14 -19 11 -26z"/>
<path d="M169 1562 c11 -8 10 -11 -4 -19 -15 -9 -16 -11 -1 -16 20 -8 21 -33
1 -41 -8 -3 -15 -11 -15 -18 0 -9 3 -9 11 2 9 12 10 10 6 -8 -5 -19 -3 -21 9
-11 13 10 13 8 4 -15 -13 -35 -13 -36 5 -30 9 4 15 0 15 -8 0 -7 9 -14 20 -14
11 0 20 5 20 11 0 5 5 3 10 -5 9 -13 10 -13 10 0 0 8 -4 30 -10 48 -7 28 -7
33 5 28 8 -3 16 -2 19 2 3 4 -9 9 -26 10 -44 4 -57 13 -47 37 6 17 8 17 8 3 1
-10 7 -18 15 -18 8 0 27 -5 41 -10 23 -9 25 -13 14 -26 -7 -8 -13 -37 -14 -64
0 -57 15 -52 18 6 2 38 19 69 31 57 3 -4 6 -1 6 6 0 16 -46 61 -61 61 -7 0
-20 6 -28 14 -9 8 -29 17 -46 21 -21 5 -26 4 -16 -3z"/>
<path d="M2280 674 c-14 -2 -65 -6 -113 -9 -49 -4 -86 -9 -83 -12 2 -3 42 -7
88 -9 239 -10 465 -18 563 -20 61 -2 144 -6 185 -9 128 -10 210 -7 189 6 -10
6 -10 9 -1 9 6 0 12 9 12 20 0 17 -7 20 -42 21 -368 4 -778 6 -798 3z"/>
<path d="M160 533 c-18 -21 -37 -48 -43 -60 -10 -23 -27 -31 -27 -14 0 14 -38
20 -44 7 -2 -6 -3 -1 -3 11 1 26 27 40 39 21 5 -8 8 -9 8 -2 0 6 -6 17 -13 23
-19 15 -71 -45 -75 -87 -3 -31 -3 -32 37 -32 23 0 41 -4 41 -8 0 -5 14 -7 30
-4 17 2 36 0 43 -5 6 -6 21 -13 32 -16 15 -5 12 0 -10 19 l-30 26 50 -6 c33
-4 45 -3 35 4 -18 11 -18 11 60 39 36 12 82 29 104 37 21 8 41 13 43 10 2 -2
-3 -18 -12 -35 -16 -31 -16 -32 5 -19 11 7 27 27 35 45 9 18 20 33 26 33 6 0
7 -6 4 -12 -4 -7 1 -4 9 6 16 19 22 46 10 46 -3 0 -12 -6 -19 -12 -41 -37 -45
-39 -45 -26 0 10 -2 10 -8 1 -8 -13 -170 -69 -227 -79 -16 -3 -31 -7 -34 -9
-2 -3 -10 3 -18 13 -10 13 -12 13 -8 2 4 -11 -1 -16 -15 -17 -28 -2 -20 25 26
90 41 57 38 61 -6 10z"/>
</g>
</svg>
