<?xml version="1.0" standalone="no"?>
<!DOCTYPE svg PUBLIC "-//W3C//DTD SVG 20010904//EN"
 "http://www.w3.org/TR/2001/REC-SVG-20010904/DTD/svg10.dtd">
<svg version="1.0" xmlns="http://www.w3.org/2000/svg"
 width="793.000000pt" height="453.000000pt" viewBox="0 0 793.000000 453.000000"
 preserveAspectRatio="xMidYMid meet">

<g transform="translate(0.000000,453.000000) scale(0.100000,-0.100000)"
fill="#000000" stroke="none">
<path d="M660 4521 c0 -6 5 -13 10 -16 6 -3 10 1 10 9 0 9 -4 16 -10 16 -5 0
-10 -4 -10 -9z"/>
<path d="M697 4515 c-4 -8 -2 -17 3 -20 6 -4 10 3 10 14 0 25 -6 27 -13 6z"/>
<path d="M720 4510 c0 -13 5 -17 14 -14 24 9 28 34 6 34 -13 0 -20 -7 -20 -20z"/>
<path d="M808 4483 c6 -2 18 -2 25 0 6 3 1 5 -13 5 -14 0 -19 -2 -12 -5z"/>
<path d="M1690 3661 c0 -24 4 -31 19 -31 26 0 31 -26 31 -165 0 -66 -3 -130
-6 -142 l-6 -23 -477 0 c-479 0 -645 6 -635 21 3 5 -3 9 -12 9 -10 0 -29 10
-42 23 -14 12 -22 15 -17 7 5 -8 -3 -5 -17 8 -13 12 -31 22 -39 22 -8 0 -22 9
-32 20 -9 11 -25 20 -36 20 -11 0 -21 5 -23 11 -4 12 -227 61 -239 53 -4 -2
-10 0 -14 6 -3 5 -21 10 -38 11 -18 0 -26 3 -19 6 26 10 11 30 -25 31 -21 1
-39 6 -41 12 -2 5 -8 10 -13 10 -5 0 -9 -71 -9 -164 l0 -163 58 -6 c31 -3 108
-6 171 -6 62 0 116 -2 119 -5 6 -7 -38 -8 -225 -6 l-123 1 0 -95 c0 -66 4 -96
13 -99 9 -4 9 -6 0 -6 -9 -1 -13 -18 -13 -52 l0 -51 88 7 c145 10 183 16 189
31 3 7 21 16 41 20 21 4 42 11 49 16 7 5 14 5 18 -2 3 -6 10 -8 15 -5 5 3 48
9 95 13 l85 8 0 -53 c0 -41 3 -53 15 -53 20 0 30 27 16 43 -6 8 -7 24 -3 38 7
23 10 24 107 25 130 2 328 13 334 19 7 8 -174 9 -396 2 -50 -2 -84 1 -87 8 -3
6 -5 6 -5 0 -1 -6 -38 -9 -96 -7 -96 3 -130 16 -52 20 23 1 56 5 72 8 34 7 78
34 56 34 -8 0 -12 3 -8 6 3 3 15 3 28 -1 15 -5 18 -9 9 -15 -8 -5 -9 -10 -2
-14 6 -3 13 3 17 14 9 27 40 31 265 33 152 2 197 5 206 16 8 11 11 7 11 -15
l0 -29 -96 -2 c-53 -2 -109 -7 -126 -12 -22 -8 2 -10 95 -9 69 1 131 -1 137
-5 6 -4 14 -1 16 5 3 7 6 -4 6 -24 1 -45 21 -52 21 -8 l0 30 163 2 c200 1 298
0 303 -4 2 -2 7 -36 12 -76 7 -61 6 -76 -7 -90 -9 -10 -24 -16 -33 -14 -13 2
-18 -3 -18 -17 0 -15 6 -21 21 -21 11 0 18 4 15 8 -2 4 4 8 14 8 10 0 16 -4
13 -9 -3 -5 4 -6 15 -3 11 4 23 2 27 -4 4 -6 -13 -10 -47 -11 -29 -1 -45 -3
-35 -6 23 -6 22 -23 -2 -23 -11 0 -23 -4 -26 -10 -3 -5 -19 -7 -35 -3 -19 3
-30 1 -30 -6 0 -6 -13 -11 -30 -11 -16 0 -30 -4 -30 -10 0 -5 10 -10 23 -10
18 0 19 -2 7 -10 -8 -5 -26 -10 -40 -11 l-25 -1 25 -8 c37 -12 228 -12 235 0
9 15 24 12 21 -5 -4 -24 -14 -29 -79 -33 -69 -4 -76 -4 -162 3 -33 2 -54 2
-46 -2 10 -4 5 -10 -15 -19 -29 -12 -29 -12 -4 -14 24 -1 23 -2 -10 -20 l-35
-19 43 -1 c29 0 44 5 48 15 7 17 64 21 64 5 0 -5 -4 -10 -10 -10 -5 0 -10 -5
-10 -11 0 -6 6 -9 14 -6 8 3 27 2 43 -3 23 -7 16 -9 -37 -10 -36 -1 -74 -3
-85 -5 -18 -3 -95 -13 -120 -15 -21 -1 22 -18 63 -24 29 -4 41 -3 37 4 -3 5 1
10 9 10 9 0 15 -5 13 -11 -4 -21 24 -21 30 0 4 14 13 21 31 21 14 0 22 -3 19
-7 -4 -3 1 -12 11 -19 15 -12 15 -15 2 -24 -18 -12 -33 -13 -27 -2 8 12 -123
4 -139 -9 -9 -7 -30 -9 -59 -5 -29 5 -45 4 -45 -3 0 -6 -12 -11 -27 -11 -16 0
-35 -5 -43 -10 -10 -7 3 -8 41 -4 34 4 64 2 75 -4 16 -10 11 -11 -26 -12 -25
0 -52 -5 -60 -10 -12 -8 -9 -10 13 -10 15 0 27 -5 27 -11 0 -6 -7 -9 -15 -6
-8 4 -17 2 -20 -2 -3 -5 2 -12 11 -15 8 -3 13 -10 9 -15 -3 -6 15 -8 47 -5 47
5 50 4 32 -8 -12 -7 -19 -18 -17 -24 2 -7 -21 -13 -63 -17 -37 -4 -72 -11 -78
-17 -5 -5 -26 -10 -45 -11 -29 0 -32 -2 -16 -9 22 -10 22 -10 -20 -15 -16 -2
-50 -7 -75 -11 l-45 -7 40 -12 c39 -12 39 -12 12 -19 -36 -9 -25 -26 16 -27
28 -1 26 -2 -13 -10 -25 -5 -56 -12 -70 -15 -24 -7 -23 -8 10 -14 l35 -7 -33
-8 c-25 -6 -30 -10 -20 -17 9 -7 2 -8 -21 -4 -27 5 -31 3 -23 -7 9 -11 -7 -12
-83 -10 -61 3 -95 0 -95 -7 0 -5 22 -10 51 -10 31 0 48 -4 44 -10 -3 -5 -18
-10 -32 -10 -20 0 -23 -3 -14 -13 8 -10 7 -19 -3 -32 -12 -17 -16 -18 -32 -5
-16 13 -17 13 -11 -2 4 -11 0 -21 -11 -27 -13 -8 -7 -11 28 -12 25 -1 36 -4
25 -6 -11 -3 -28 -12 -38 -21 -16 -14 -19 -14 -28 -2 -7 12 -10 11 -15 -7 -3
-12 -18 -26 -33 -32 -23 -8 -24 -9 -4 -10 31 -1 40 -21 9 -21 -38 0 -56 -10
-56 -34 -1 -20 -1 -20 -15 -2 -17 22 -30 15 -43 -23 -8 -24 -7 -31 4 -35 9 -3
12 -11 9 -17 -4 -6 -14 -8 -22 -4 -17 6 -73 -15 -73 -27 0 -4 -17 -10 -38 -13
-20 -4 -46 -11 -57 -16 -43 -19 -115 -29 -135 -19 -16 8 -18 8 -14 -5 4 -8 12
-15 20 -15 8 0 14 -7 14 -15 0 -8 -8 -15 -17 -15 -17 -1 -17 -1 -1 -11 10 -5
29 -7 44 -3 l27 7 -23 17 c-22 17 -22 17 -2 22 24 7 47 -6 38 -20 -3 -6 1 -15
10 -20 19 -10 11 -32 -12 -32 -8 0 -14 -4 -14 -9 0 -4 -11 -6 -24 -4 -27 5
-69 -13 -61 -27 3 -5 -3 -11 -12 -14 -10 -3 1 -4 25 -3 47 3 57 -14 21 -34
-17 -9 -19 -13 -8 -20 12 -7 11 -9 -1 -8 -8 1 -26 5 -40 9 -24 8 -24 8 -2 9
12 1 22 5 22 10 0 4 -37 -1 -82 -13 -67 -16 -78 -22 -58 -27 l25 -7 -23 -7
c-31 -10 -29 -34 3 -27 14 2 25 0 25 -6 0 -6 -12 -13 -27 -15 -16 -2 -2 -5 29
-6 48 -1 56 -4 51 -17 -5 -12 -15 -14 -54 -9 l-49 7 0 -696 1 -696 214 0 c208
0 215 1 215 20 0 11 4 20 9 20 5 0 7 -9 4 -20 -5 -20 0 -20 586 -20 l591 0 6
25 c5 20 9 23 20 14 10 -8 22 -8 45 0 18 6 55 10 83 10 28 -1 41 -4 28 -6 -13
-3 -25 -10 -28 -18 -3 -7 -14 -11 -25 -8 -10 3 -19 0 -19 -6 0 -8 135 -11 486
-11 407 0 488 2 500 14 8 8 14 19 14 24 0 6 6 12 13 15 10 4 12 -3 9 -24 -4
-27 -2 -29 32 -29 20 0 36 4 36 9 0 5 14 11 30 13 30 5 41 -6 18 -15 -7 -3 1
-6 19 -6 17 -1 34 3 37 8 3 4 17 6 31 3 23 -4 30 4 26 31 -2 13 17 7 23 -8 7
-19 26 -20 26 -1 0 8 11 17 25 20 14 4 25 13 25 21 0 19 -14 19 -30 0 -7 -8
-28 -15 -46 -15 -19 0 -34 -4 -34 -10 0 -5 -7 -7 -16 -3 -13 5 -10 9 12 19 17
7 23 13 14 14 -8 1 -19 3 -25 5 -5 1 -20 3 -33 3 -39 3 -15 19 35 25 27 3 93
15 148 27 55 12 115 20 133 18 17 -2 32 0 32 5 0 4 4 5 10 2 5 -3 18 -1 28 4
31 17 206 41 247 34 27 -4 36 -3 31 5 -4 7 -4 12 1 13 41 4 184 29 288 50 55
12 117 18 138 16 20 -3 35 -1 32 3 -6 10 34 25 42 16 4 -3 -1 -6 -11 -6 -9 0
-15 -4 -12 -9 3 -4 18 -7 33 -5 16 2 20 1 9 -2 -11 -4 -26 -12 -34 -20 -7 -8
-22 -14 -33 -14 -10 0 -19 -4 -19 -10 0 -5 9 -10 19 -10 11 0 22 -4 25 -8 2
-4 -12 -6 -32 -4 -20 3 -34 1 -29 -4 11 -11 99 -15 92 -4 -3 6 -4 10 -1 10 11
0 62 -25 74 -37 16 -15 86 -18 77 -3 -3 6 1 7 10 4 8 -4 35 -3 60 0 37 6 45
11 45 28 0 16 5 19 21 15 15 -4 19 -2 15 9 -3 9 -1 12 4 9 14 -9 12 -32 -2
-38 -8 -3 -8 -6 -2 -6 6 -1 21 8 33 18 20 18 21 20 4 24 -15 4 -15 5 3 6 17 1
20 6 16 26 -4 22 -7 24 -20 13 -12 -10 -16 -10 -19 0 -6 15 -34 16 -30 1 1 -6
-4 -14 -10 -16 -7 -3 -13 0 -13 7 0 13 -87 4 -106 -11 -13 -10 -44 -2 -44 11
0 5 5 10 12 12 18 6 -1 28 -25 29 -14 1 -9 4 13 9 134 30 198 39 230 34 25 -4
40 -2 45 6 5 9 4 11 -3 6 -7 -4 -12 -3 -12 2 0 5 25 13 56 17 35 4 57 12 61
21 14 38 -5 36 -377 -26 -96 -16 -339 -55 -540 -85 -201 -31 -403 -62 -450
-70 -87 -14 -405 -65 -565 -90 -49 -8 -130 -19 -179 -25 -49 -6 -92 -13 -95
-15 -3 -1 -51 -8 -106 -15 -127 -15 -123 -15 -229 -34 -92 -17 -158 -21 -101
-6 17 4 22 8 13 9 -19 1 -25 21 -7 21 6 0 9 6 6 14 -5 12 8 14 70 12 42 -1 71
0 64 2 -6 2 -9 7 -6 12 3 4 -4 6 -16 3 -12 -4 -25 0 -30 8 -6 11 -11 11 -21 1
-15 -15 -52 -16 -43 -1 4 6 14 8 22 4 13 -4 13 -3 4 8 -9 12 -7 13 13 10 13
-3 27 0 30 6 4 6 17 11 29 11 22 -1 22 -1 3 -15 -11 -8 -18 -15 -15 -16 2 0
14 -2 27 -5 17 -3 22 1 22 17 0 18 4 20 33 14 17 -4 37 -12 44 -17 7 -6 14 -5
18 2 3 5 0 10 -7 10 -8 1 -6 6 6 15 26 20 37 19 30 -2 -4 -11 -3 -14 3 -7 4 6
22 14 38 17 27 6 56 10 176 21 20 2 46 9 57 15 11 6 35 11 52 11 24 0 31 4 26
15 -4 12 3 14 44 9 55 -6 94 2 84 17 -3 6 -24 7 -50 3 -30 -4 -44 -3 -44 5 0
10 14 15 33 12 4 -1 15 6 25 15 15 15 15 16 -6 10 -13 -5 -22 -3 -22 3 0 6 -7
11 -15 11 -19 0 -20 16 -1 23 8 3 17 1 19 -6 3 -9 8 -9 18 0 7 7 22 13 33 13
18 0 19 -2 6 -11 -12 -9 -12 -10 3 -5 10 3 24 6 30 6 7 0 6 4 -3 10 -12 8 -11
10 7 10 12 0 29 3 39 7 11 4 15 3 10 -5 -8 -13 10 -26 25 -16 8 4 7 9 -2 15
-21 13 17 12 41 -1 11 -6 32 -7 47 -3 l28 7 -30 6 c-21 4 4 11 90 23 66 10
145 22 175 27 30 5 73 12 95 14 22 3 96 14 165 25 69 11 152 23 185 26 33 4
96 13 140 20 84 15 357 55 545 80 97 13 120 18 120 30 0 22 -36 23 -132 5
-185 -37 -402 -62 -432 -51 -47 18 -176 12 -176 -9 0 -4 21 -3 48 1 26 5 67 6
92 2 l45 -7 -45 -8 c-25 -4 -79 -12 -120 -18 -41 -5 -120 -16 -175 -24 -55 -8
-174 -24 -265 -36 -91 -12 -217 -30 -280 -40 -128 -21 -204 -31 -259 -35 -20
-1 -56 -5 -81 -9 -28 -3 -36 -3 -20 2 24 8 23 9 -12 16 -41 8 -52 26 -15 26
14 0 18 3 10 8 -13 8 46 15 145 16 45 1 62 5 62 15 0 8 6 11 15 7 8 -3 15 -1
15 4 0 6 5 10 10 10 6 0 9 -5 8 -11 -2 -6 5 -13 15 -14 15 -3 16 -1 6 11 -16
20 7 19 27 -1 20 -19 34 -19 34 0 0 8 9 15 20 15 11 0 20 -4 20 -9 0 -5 10 -6
23 -3 22 6 22 6 -3 13 l-25 6 28 12 c39 15 76 14 93 -4 11 -11 20 -12 34 -5
23 12 57 13 62 2 2 -5 14 -5 28 -1 21 6 22 7 5 9 -29 3 93 29 137 30 20 0 40
4 43 10 3 5 24 7 46 5 23 -3 38 -2 35 4 -10 16 28 24 144 28 119 4 145 7 136
21 -7 12 39 29 60 21 11 -5 13 -8 5 -8 -8 -1 -12 -3 -10 -6 8 -7 79 15 79 24
0 4 12 9 28 9 15 0 45 4 67 7 35 5 38 4 23 -8 -15 -12 -11 -14 32 -14 28 0 50
4 50 9 0 4 11 8 24 8 13 0 40 7 59 15 20 8 49 15 64 15 22 0 25 2 13 11 -11 8
-6 9 22 7 21 -2 35 -2 33 1 -3 2 0 10 5 16 7 9 6 15 -2 22 -18 14 -59 23 -52
12 3 -5 -2 -9 -11 -9 -9 0 -14 -4 -11 -9 4 -5 -3 -7 -14 -4 -11 3 -26 0 -34
-6 -14 -12 -235 -53 -356 -66 -36 -4 -85 -13 -108 -21 -24 -8 -94 -19 -155
-24 -237 -21 -344 -40 -227 -40 79 0 49 -17 -43 -24 -43 -3 -83 -8 -88 -12
-21 -13 -122 -16 -130 -3 -5 9 -20 10 -66 1 -83 -16 -163 -23 -138 -12 11 5
14 9 7 9 -7 1 -11 4 -9 9 3 4 -17 7 -43 7 -26 0 -46 -3 -43 -7 2 -5 13 -8 23
-8 25 0 35 -17 13 -24 -32 -10 -204 -26 -214 -21 -5 4 -9 12 -9 20 0 7 -10 16
-22 18 -17 3 -13 5 12 7 42 3 50 4 70 12 16 6 263 42 565 83 105 14 222 30
260 36 39 5 162 23 275 39 113 17 237 34 276 40 50 8 79 8 99 0 24 -9 26 -9
16 4 -10 12 -4 15 44 21 50 7 56 10 53 29 -2 16 -9 20 -28 19 -25 -3 -25 -3
-2 7 12 5 22 12 22 15 0 4 -4 4 -8 1 -5 -3 -23 8 -40 24 -21 19 -40 27 -59 25
-67 -6 -112 -18 -117 -31 -4 -10 -15 -12 -37 -7 -23 4 -30 3 -25 -5 8 -13 -10
-8 -52 14 -16 8 -19 13 -10 17 7 3 -7 5 -32 5 -25 0 -49 -3 -54 -6 -14 -8 24
-20 66 -21 41 -1 59 -16 28 -24 -67 -17 38 -28 113 -11 19 4 27 2 27 -7 0 -9
3 -9 13 2 10 13 21 14 72 4 l59 -10 -77 -10 c-60 -8 -77 -7 -77 2 0 7 -4 13
-10 13 -5 0 -10 -6 -10 -13 0 -21 -84 -37 -430 -83 -63 -8 -189 -26 -280 -39
-91 -14 -196 -29 -235 -35 -38 -5 -127 -19 -198 -30 -76 -12 -147 -18 -177
-15 -33 4 -50 2 -50 -5 0 -7 -9 -5 -22 4 -12 9 -27 16 -33 16 -5 0 -3 -5 5
-10 12 -8 10 -10 -10 -10 -19 0 -22 -2 -11 -9 23 -15 -31 -25 -94 -17 -39 4
-57 2 -68 -8 -18 -18 -147 -33 -147 -17 0 6 -8 11 -18 11 -10 0 -19 7 -19 15
0 15 42 24 128 28 43 2 60 16 21 18 -14 0 -14 2 -2 6 31 12 41 25 29 39 -6 8
-15 11 -20 8 -5 -3 -9 1 -9 9 0 14 29 27 60 27 13 0 13 -1 0 -10 -11 -8 -7
-10 18 -8 20 1 32 8 32 16 0 11 9 13 35 9 19 -3 35 -2 35 4 0 5 15 8 33 8 l32
-1 -30 -8 c-30 -8 -30 -8 8 -9 20 0 37 3 37 8 0 5 8 12 18 16 16 6 460 65 645
85 48 6 146 19 217 30 147 23 164 24 155 10 -3 -5 -25 -10 -48 -11 -23 0 -51
-4 -62 -9 -18 -7 -17 -8 9 -15 17 -5 31 -4 35 3 3 6 24 10 46 10 22 -1 71 3
109 7 51 6 64 10 48 16 -11 4 -44 6 -71 4 -28 -2 -51 1 -51 6 0 5 6 9 13 9 6
0 71 9 142 20 72 11 144 18 160 15 21 -5 26 -3 16 4 -19 13 47 26 86 17 21 -5
24 -4 13 4 -8 5 -10 10 -5 10 6 0 3 4 -5 9 -9 5 -69 1 -145 -10 -71 -10 -159
-21 -195 -24 -76 -6 -126 -12 -195 -25 -123 -24 -568 -80 -587 -74 -12 4 -18
2 -14 -4 3 -6 -33 -14 -92 -22 -53 -6 -191 -25 -307 -41 -115 -16 -248 -34
-295 -39 -47 -5 -125 -14 -175 -20 -49 -6 -110 -13 -135 -15 -25 -2 -106 -13
-180 -24 -189 -28 -192 -29 -183 -20 9 9 226 42 316 48 4 1 7 5 7 10 0 4 -12
7 -27 5 -28 -4 -28 -4 -3 5 14 5 42 6 62 4 34 -5 38 -3 44 22 6 25 8 26 19 11
10 -13 14 -14 18 -3 3 8 19 13 41 12 20 0 36 3 36 7 0 10 -20 12 -93 9 -49 -3
-56 -1 -51 13 3 9 11 16 18 16 7 0 7 3 -2 8 -7 5 54 16 140 25 211 24 438 52
663 82 214 28 238 30 215 15 -12 -8 -12 -10 5 -10 30 0 65 11 60 19 -2 4 12 6
31 5 19 -2 32 1 30 5 -11 17 67 21 85 5 19 -17 67 -10 76 12 3 9 14 12 29 8
13 -3 24 -2 24 3 0 5 17 10 37 11 21 2 56 7 78 12 22 5 58 9 80 9 35 0 37 -1
17 -10 -13 -5 -28 -7 -32 -4 -5 3 -12 0 -16 -6 -5 -9 5 -10 39 -6 28 4 59 2
79 -6 42 -16 84 -16 81 1 -2 6 3 12 10 12 7 0 18 5 25 12 7 7 31 11 53 9 28
-2 39 1 35 8 -4 7 1 11 13 11 12 0 21 -6 21 -12 0 -9 4 -8 10 2 6 10 10 11 10
3 0 -8 13 -13 33 -13 l32 1 -30 13 -30 13 30 11 30 12 -30 -5 c-16 -2 -42 -7
-57 -9 -16 -3 -28 -1 -28 3 0 10 183 32 190 22 3 -4 13 -10 23 -14 25 -9 23
-41 -3 -34 -11 3 -18 1 -14 -4 3 -5 -6 -13 -20 -19 -14 -5 -26 -12 -26 -14 0
-7 63 15 78 27 10 8 24 -1 58 -39 25 -27 42 -41 38 -30 -5 14 -3 17 7 14 8 -3
25 -1 38 4 22 8 23 7 17 -24 -3 -17 -12 -36 -19 -41 -11 -8 35 -2 77 10 11 3
16 1 12 -5 -4 -6 2 -15 11 -21 16 -9 16 -12 3 -22 -12 -8 -12 -12 -2 -16 10
-4 10 -8 1 -19 -9 -11 -8 -14 6 -14 10 0 26 -7 36 -16 13 -12 26 -14 46 -9
l28 8 -31 10 c-30 9 -31 10 -15 26 13 14 22 15 44 8 19 -6 32 -6 40 2 8 8 2
12 -21 17 -17 3 -44 19 -59 35 -15 16 -44 33 -63 39 -31 9 -66 50 -53 63 10
11 41 -6 36 -19 -3 -8 3 -16 13 -20 11 -3 27 -10 37 -15 11 -6 50 -13 88 -16
73 -6 83 -24 16 -26 -35 -1 -43 -17 -8 -17 20 0 63 -29 43 -30 -32 0 16 -28
63 -36 l50 -8 -45 -6 -45 -5 62 -14 c35 -8 60 -18 59 -25 -2 -6 -1 -8 1 -3 3
4 11 7 19 7 9 0 12 5 8 12 -12 19 19 -3 35 -25 11 -16 22 -18 57 -14 24 2 44
1 44 -4 0 -5 -5 -9 -11 -9 -6 0 -18 -7 -27 -16 -14 -15 -14 -16 4 -12 10 2 24
-2 29 -10 13 -17 46 -5 38 14 -5 15 19 13 96 -7 46 -11 48 -7 6 16 -32 16 -46
35 -27 35 33 -1 100 -25 114 -40 10 -11 25 -17 33 -14 8 3 22 -1 30 -10 9 -9
30 -16 46 -16 26 0 29 3 24 20 -4 11 -2 20 4 20 6 0 11 -6 11 -13 0 -9 11 -12
36 -10 45 3 58 13 18 14 -25 0 -26 2 -9 8 11 5 33 4 49 0 16 -5 32 -6 35 -4 2
3 -1 5 -7 5 -7 0 -12 6 -12 14 0 9 18 15 53 19 28 3 66 13 84 22 17 9 49 17
70 19 21 2 44 4 51 5 19 2 14 21 -5 21 -10 0 -26 7 -36 14 -15 12 -16 14 -2
20 17 6 39 0 74 -23 21 -13 22 -16 7 -27 -14 -10 -12 -13 19 -18 19 -4 35 -11
35 -16 0 -6 11 -10 25 -10 14 0 25 -4 25 -10 0 -5 21 -10 46 -10 35 0 45 -3
41 -14 -6 -15 47 -31 66 -19 5 3 8 2 5 -3 -4 -5 16 -16 43 -26 27 -9 49 -14
49 -12 0 2 -10 12 -22 24 -12 11 -18 20 -13 20 5 0 0 7 -11 15 -23 17 -5 20
30 4 14 -7 40 -9 60 -5 32 6 35 10 30 30 -4 16 0 25 10 29 19 8 21 33 4 40
-11 5 26 11 59 10 6 0 9 6 6 13 -3 9 2 14 13 14 15 0 15 3 -5 24 l-23 25 23
-6 c18 -5 21 -3 16 10 -7 19 17 24 28 7 12 -19 26 -11 15 9 -8 16 -5 21 20 30
17 5 30 14 30 19 0 5 17 18 38 28 20 9 31 19 24 22 -6 2 -10 8 -7 13 3 4 -6
11 -20 15 -14 3 -32 19 -41 35 -8 16 -18 29 -23 29 -5 0 -12 21 -16 48 -7 49
-28 82 -52 82 -7 0 -13 7 -13 15 0 8 4 15 9 15 17 0 19 28 5 55 -17 34 -18 85
-1 85 9 0 8 3 -2 9 -10 7 -11 18 -5 46 10 41 50 78 58 54 14 -46 17 -52 26
-43 11 11 -6 142 -21 161 -6 7 -8 13 -3 13 5 0 2 4 -6 10 -12 7 -12 11 3 28
10 11 21 32 26 48 9 31 1 44 -31 57 -10 3 -18 11 -18 16 0 6 -6 8 -14 5 -13
-5 -32 29 -38 71 -2 11 -17 27 -35 35 -18 8 -31 20 -28 27 2 7 -9 13 -28 15
-23 2 -31 8 -29 19 1 9 -4 22 -12 28 -12 10 -14 57 -9 294 3 155 5 302 4 327
0 25 2 64 5 88 l5 42 60 0 c53 0 61 3 70 24 7 14 9 36 5 51 -8 30 -26 28 -89
-12 l-39 -24 7 23 c4 13 17 33 30 44 18 17 21 24 12 33 -9 9 -8 11 6 6 10 -4
17 -2 17 4 0 6 -11 16 -24 21 -13 5 -27 14 -31 20 -13 21 -25 -2 -25 -48 0
-26 -3 -64 -6 -84 -6 -34 -8 -37 -35 -31 -24 4 -30 1 -40 -21 -8 -17 -15 -22
-20 -15 -9 15 -110 13 -120 -3 -6 -9 -12 -8 -26 4 -10 9 -42 19 -71 23 -53 7
-54 7 -43 -14 7 -12 20 -21 31 -21 10 0 26 -3 36 -7 12 -4 15 -3 10 5 -10 17
9 15 23 -2 7 -8 25 -19 41 -24 25 -9 31 -7 45 14 21 32 55 28 73 -8 11 -24 16
-26 37 -18 14 5 25 6 25 2 1 -38 2 -324 1 -516 l-1 -238 -36 68 c-20 38 -47
91 -60 117 -30 58 -49 54 -27 -6 8 -23 17 -60 20 -82 2 -22 8 -52 13 -68 6
-19 5 -35 -5 -55 -8 -15 -16 -34 -19 -44 -4 -13 -11 -15 -38 -8 -79 21 -328
92 -386 110 -34 11 -77 20 -94 20 -17 0 -28 3 -24 7 4 4 -22 15 -56 25 -79 22
-78 22 -79 1 -1 -10 -5 -2 -10 17 -5 19 -8 147 -8 284 l0 249 26 33 c31 42 46
42 90 4 28 -25 38 -29 49 -19 11 9 14 8 14 -6 0 -38 65 -60 90 -30 9 11 28 13
91 8 49 -4 79 -2 79 4 0 15 54 37 58 24 5 -16 58 -13 71 3 18 22 93 44 116 35
33 -13 36 -10 33 23 -3 36 -23 48 -32 20 -4 -11 -24 -25 -47 -32 -36 -12 -44
-12 -72 3 -18 10 -43 20 -57 22 -41 8 -107 15 -87 9 13 -4 17 -16 17 -47 l0
-42 -19 24 c-18 23 -22 24 -58 13 -33 -10 -50 -9 -94 4 -93 27 -105 54 -26 59
35 2 47 -1 47 -11 0 -8 5 -14 10 -14 6 0 10 4 10 9 0 6 -4 13 -10 16 -15 9
-12 22 6 29 19 7 54 -20 54 -41 0 -18 16 -17 24 2 3 9 -1 18 -9 21 -27 11 -16
24 19 24 29 0 34 3 34 25 0 27 -9 27 -90 0 -34 -11 -38 -11 -38 5 0 10 7 23
15 30 8 7 15 16 15 20 0 17 -109 100 -124 94 -9 -3 -16 -11 -16 -16 0 -6 6 -8
14 -5 11 4 11 1 3 -17 -7 -14 -17 -21 -28 -19 -9 3 -26 -6 -38 -19 l-22 -23 7
55 c3 30 7 59 8 65 0 5 -22 12 -50 15 l-52 5 -6 -95 c-9 -118 -14 -138 -34
-143 -15 -4 -15 -5 1 -6 9 0 17 -5 17 -9 0 -10 -60 -3 -75 8 -5 5 -52 13 -104
19 -82 10 -308 54 -426 82 -22 5 -71 16 -110 23 -38 8 -106 23 -150 35 -44 11
-105 21 -135 21 -61 1 -157 20 -180 35 -38 25 -59 32 -71 24 -11 -6 -11 -9 1
-13 45 -14 46 -14 28 -15 -9 -1 -29 4 -45 11 -15 7 -53 17 -83 24 -30 6 -45
12 -33 13 25 1 38 16 23 26 -5 3 -10 1 -10 -4 0 -6 -9 -11 -19 -11 -20 0 -36
24 -32 50 1 9 -1 11 -6 5 -4 -5 -17 -11 -28 -12 -31 -2 -109 -33 -117 -46 -4
-7 -6 -19 -3 -27 2 -8 7 -138 10 -287 6 -261 5 -273 -12 -273 -27 0 -97 75
-90 94 4 10 1 16 -8 16 -8 0 -15 7 -15 15 0 8 -4 15 -10 15 -5 0 -7 -6 -5 -12
2 -7 6 -24 9 -38 5 -35 46 -120 57 -120 5 0 10 -17 10 -37 1 -23 3 -29 6 -16
4 22 5 21 40 -10 59 -52 68 -64 82 -104 8 -21 22 -50 32 -65 25 -35 24 -38
-10 -38 -17 0 -31 -6 -35 -16 -9 -23 -8 -24 22 -25 24 0 24 -1 7 -8 -11 -5
-28 -4 -38 1 -10 5 -30 8 -45 6 -21 -2 -26 -8 -23 -23 3 -19 2 -19 -16 -2 -11
9 -27 17 -36 17 -10 0 -14 5 -11 15 4 8 13 15 21 15 8 0 12 4 9 9 -3 5 -22 5
-43 1 -48 -10 -144 -10 -138 0 3 4 -24 11 -60 15 -36 3 -67 11 -70 16 -4 5
-12 9 -18 9 -7 0 -6 -4 3 -10 12 -7 10 -11 -10 -18 -22 -8 -18 -10 30 -17 48
-7 52 -9 31 -17 -14 -5 -27 -5 -30 -1 -3 4 -53 8 -111 9 -58 0 -94 -3 -80 -7
17 -5 8 -7 -30 -7 -47 0 -51 2 -25 9 21 5 7 7 -43 4 -41 -2 -77 -7 -80 -10 -4
-4 12 -6 36 -3 23 2 42 1 42 -3 0 -5 -122 -15 -420 -35 -47 -4 -89 -11 -95
-16 -6 -6 2 -8 25 -4 42 6 311 21 325 17 5 -1 54 3 110 9 69 8 119 8 161 1 41
-6 87 -6 138 1 43 5 80 8 83 4 3 -3 2 -13 -1 -23 -5 -11 -10 -13 -14 -7 -7 12
-47 12 -59 1 -3 -4 2 -7 13 -7 16 0 17 -2 4 -10 -8 -5 -36 -10 -61 -10 -68 0
-139 -11 -139 -22 0 -5 12 -7 28 -4 51 12 146 10 150 -2 2 -7 13 -11 25 -11
17 1 18 2 5 6 -18 4 -25 22 -10 24 4 0 30 3 57 6 28 2 48 2 44 -1 -3 -3 -19
-6 -36 -8 -40 -3 -33 -15 13 -24 19 -3 34 -8 32 -9 -2 -2 -68 -8 -148 -14 -80
-6 -233 -18 -340 -26 -107 -9 -258 -20 -335 -25 -285 -20 -574 -41 -700 -50
-71 -5 -131 -7 -134 -5 -10 11 10 15 78 19 39 1 75 6 79 10 4 4 -7 5 -23 2
-26 -6 -27 -5 -8 3 13 6 64 13 115 16 51 3 136 10 188 15 52 5 154 12 225 16
72 4 139 10 150 15 28 11 37 11 -365 -16 -201 -14 -394 -24 -430 -23 l-65 1
55 7 c53 7 52 7 -22 7 -42 -1 -81 2 -85 7 -4 4 -1 7 7 5 8 -1 65 1 125 5 61 4
139 9 175 11 152 10 384 27 500 36 69 5 184 14 255 20 72 5 173 13 225 18 82
7 87 8 35 10 -33 0 -107 -3 -165 -8 -58 -6 -145 -12 -195 -16 -241 -16 -411
-26 -635 -40 -135 -8 -273 -18 -306 -21 -40 -4 -64 -2 -68 5 -4 6 -20 11 -37
11 -16 0 -29 5 -29 10 0 6 -9 10 -20 10 -11 0 -20 5 -20 11 0 5 4 8 9 4 5 -3
12 -1 16 5 3 5 2 10 -2 10 -11 0 -11 45 0 56 8 9 10 58 1 67 -8 8 -14 98 -8
120 8 27 24 20 24 -12 0 -23 5 -31 23 -34 l22 -4 -23 -2 c-24 -1 -24 9 -2
-144 5 -32 6 -66 3 -75 -5 -14 -3 -15 8 -4 16 14 46 16 51 2 2 -5 37 -12 78
-16 48 -3 70 -2 62 4 -21 14 12 24 42 12 14 -5 26 -5 28 0 2 5 68 12 148 16
80 3 152 10 160 15 10 6 2 9 -25 9 -22 0 -51 3 -65 5 -22 5 -22 4 -5 -4 15 -7
2 -10 -50 -10 -43 0 -77 5 -87 13 -15 11 1 14 110 20 70 4 150 9 177 11 28 3
142 12 255 20 113 9 257 20 320 25 63 5 180 15 260 21 80 6 161 15 180 20 36
8 -5 7 -160 -6 -36 -3 -107 -7 -158 -10 -51 -2 -96 -6 -100 -9 -4 -2 -61 -7
-127 -10 -66 -4 -169 -11 -230 -16 -94 -9 -622 -40 -672 -40 -13 0 -14 3 -5
12 7 7 49 13 103 14 50 1 93 5 96 8 11 11 -4 16 -25 9 -11 -5 -53 -6 -94 -4
l-73 4 55 13 c61 14 208 27 590 49 140 9 307 20 371 26 137 12 189 10 207 -8
7 -7 21 -13 30 -13 12 1 10 5 -8 14 l-25 14 27 -1 c14 -1 24 -5 21 -9 -2 -5 5
-8 17 -8 12 0 19 4 16 9 -8 12 34 19 64 10 19 -5 20 -7 6 -8 -11 -1 -17 -3
-14 -6 7 -8 130 -15 141 -8 16 10 -16 23 -58 24 -22 0 -49 5 -60 10 -16 7 -12
8 18 6 20 -2 37 1 37 5 0 4 -19 8 -42 8 -47 0 -479 -27 -948 -60 -293 -20
-410 -23 -410 -11 0 3 24 7 53 9 28 2 57 8 62 13 7 7 -16 8 -69 4 -48 -4 -76
-3 -73 3 4 5 62 12 129 16 68 3 206 11 308 16 102 6 286 17 410 25 124 8 256
16 293 19 75 4 104 16 39 16 -22 0 -148 -6 -279 -14 -131 -8 -326 -20 -433
-25 -107 -6 -240 -14 -295 -17 -153 -10 -265 -11 -265 -3 0 11 31 20 43 12 18
-11 37 -12 37 -2 0 5 -5 9 -12 9 -9 0 -9 3 -1 11 7 7 73 11 177 12 91 1 166 5
166 9 0 4 19 9 43 11 48 6 -252 -1 -358 -8 -70 -4 -70 -4 20 10 49 7 93 11 97
9 5 -3 18 -2 31 3 19 6 17 8 -18 13 -33 5 -24 8 53 14 51 5 95 13 98 18 4 6
-10 9 -32 8 -67 -3 -72 3 -9 10 l60 7 -80 1 c-44 1 -105 -2 -135 -6 l-55 -7
75 -6 75 -5 -95 -2 c-70 -1 -91 1 -80 9 11 8 3 9 -32 5 -40 -5 -46 -3 -44 12
2 9 11 19 21 20 12 3 15 0 10 -8 -6 -10 -1 -11 21 -6 16 4 31 12 32 17 2 5 29
10 60 11 l57 1 -60 6 -60 6 61 8 c33 5 67 13 75 19 10 7 4 8 -21 4 -19 -3 -48
-2 -65 2 -31 9 142 22 286 22 38 0 71 5 74 11 5 7 -24 9 -96 4 -225 -13 -467
-14 -472 -1 -3 8 21 12 87 12 104 0 276 23 276 37 0 5 -15 7 -34 5 -19 -2 -32
0 -30 4 3 4 -10 8 -28 7 -32 -1 -32 -1 -8 -10 21 -7 19 -8 -12 -4 -28 3 -38 0
-38 -11 0 -18 -15 -18 -34 2 -18 18 -21 34 -6 34 6 0 4 10 -4 23 -19 29 -25
109 -8 115 25 8 11 31 -20 35 -29 3 -27 4 10 5 35 2 42 -1 42 -17 0 -17 7 -19
55 -17 30 2 58 6 61 9 4 4 34 9 66 13 l60 7 -32 13 c-18 8 -50 14 -71 14 -33
0 -39 3 -40 23 -1 12 0 27 1 32 1 6 3 16 3 23 0 7 14 12 34 12 20 0 32 4 28
10 -4 6 13 11 42 12 43 1 44 2 11 5 -30 3 -38 8 -38 24 0 19 5 20 93 18 51 -2
97 0 102 3 6 3 98 6 205 5 208 0 205 -10 -8 -26 -106 -8 -106 -8 -31 -10 128
-2 230 -13 226 -25 -2 -5 -28 -10 -58 -9 -31 1 -43 -1 -29 -5 16 -4 -8 -10
-70 -18 l-95 -11 150 3 c92 2 142 0 130 -6 -17 -7 -17 -9 -2 -9 9 -1 17 -6 17
-12 0 -6 -7 -8 -16 -5 -9 3 -34 8 -57 11 -33 3 -36 3 -12 -3 26 -7 27 -9 10
-14 -23 -7 -107 -22 -115 -21 -3 1 -18 5 -33 8 -17 5 -27 3 -27 -4 0 -6 13
-11 29 -11 17 0 33 -4 36 -10 3 -5 18 -10 33 -11 24 0 25 -1 7 -9 -14 -6 0 -8
45 -8 53 0 59 2 35 9 -26 7 -24 8 14 4 44 -3 71 -19 58 -32 -8 -7 -89 -12
-206 -13 -47 0 -62 -3 -54 -11 7 -7 46 -10 107 -7 70 2 97 0 101 -9 3 -9 -11
-13 -48 -15 -116 -3 -137 -5 -145 -13 -4 -4 34 -6 83 -3 50 3 104 2 120 -2 30
-8 15 -10 -130 -15 -154 -6 -205 -11 -205 -19 0 -5 48 -6 113 -3 61 4 195 9
297 13 102 3 190 7 197 9 6 2 14 -7 17 -21 4 -14 13 -24 24 -23 10 0 12 3 5 6
-7 2 -13 13 -13 22 0 19 -33 53 -65 66 -22 10 -30 11 -60 15 -15 2 -12 4 10
10 l30 8 -32 1 c-19 1 -33 -4 -33 -11 0 -19 -13 0 -27 40 -8 20 -15 62 -16 92
l-2 55 -37 -3 c-42 -4 -42 -3 -38 73 2 22 3 51 2 65 -4 183 -2 502 4 576 6 90
8 94 30 94 20 0 24 5 24 30 0 24 -4 30 -22 30 -249 3 -620 11 -710 16 l-118 6
0 -31z m471 -47 c231 -5 267 -8 275 -23 14 -22 1 -268 -14 -283 -8 -8 -15 -8
-26 1 -10 9 -16 9 -21 1 -5 -8 -11 -5 -21 7 -12 17 -13 17 -14 1 0 -25 -20
-23 -20 2 0 11 -4 20 -10 20 -5 0 -10 -9 -10 -20 0 -11 -4 -20 -10 -20 -5 0
-10 11 -10 25 0 34 -18 32 -23 -2 -4 -26 -4 -26 -6 5 0 21 -6 32 -16 32 -10 0
-15 -11 -16 -32 -2 -33 -2 -33 -8 5 -8 50 -25 52 -30 2 l-5 -40 -5 44 c-8 62
-31 67 -31 7 0 -39 -3 -46 -19 -46 -17 0 -20 8 -23 50 -2 28 -7 50 -13 50 -6
0 -9 -22 -7 -50 2 -30 -1 -50 -8 -50 -5 0 -10 20 -10 45 0 31 -4 45 -13 45
-10 0 -13 -12 -10 -45 3 -29 1 -45 -6 -45 -6 0 -11 18 -11 40 0 30 -4 40 -16
40 -13 0 -15 -7 -9 -40 4 -26 3 -40 -4 -40 -6 0 -11 16 -11 36 0 24 -4 34 -12
31 -8 -2 -12 -17 -10 -35 1 -18 -2 -32 -8 -32 -5 0 -10 14 -10 31 0 20 -4 29
-12 26 -7 -2 -12 -16 -10 -31 2 -18 -1 -25 -7 -21 -6 3 -11 15 -11 26 0 10 -4
19 -10 19 -5 0 -10 -12 -10 -26 0 -14 -4 -23 -10 -19 -6 4 -8 10 -5 15 3 5 0
12 -6 15 -6 4 -13 -2 -16 -14 -5 -20 -6 -20 -19 -4 -12 17 -13 17 -19 0 -6
-14 -10 -15 -21 -6 -20 17 -19 224 1 259 8 14 17 33 21 42 5 14 15 16 48 13
22 -3 161 -8 307 -11z m-1604 -300 c-3 -3 -12 -4 -19 -1 -8 3 -5 6 6 6 11 1
17 -2 13 -5z m1123 -74 c-36 -12 -98 -12 -105 0 -4 6 19 10 62 9 49 -1 61 -3
43 -9z m-910 -14 c19 -1 -66 -3 -190 -3 -124 0 -193 3 -155 6 67 6 270 4 345
-3z m330 3 c0 -5 -49 -8 -110 -8 -60 1 -114 -2 -119 -5 -12 -8 -61 3 -61 14 0
4 65 7 145 7 80 1 145 -3 145 -8z m200 1 c-73 -11 -152 -11 -167 -2 -6 4 41 8
105 8 92 1 105 0 62 -6z m957 -72 c-2 -13 -4 -3 -4 22 0 25 2 35 4 23 2 -13 2
-33 0 -45z m-1197 12 c0 -5 -2 -10 -4 -10 -3 0 -8 5 -11 10 -3 6 -1 10 4 10 6
0 11 -4 11 -10z m45 -12 c6 -4 2 -8 -7 -8 -10 0 -18 7 -18 17 0 9 3 12 8 7 4
-5 12 -12 17 -16z m-232 5 c-7 -2 -19 -2 -25 0 -7 3 -2 5 12 5 14 0 19 -2 13
-5z m1204 -15 c-3 -8 -6 -5 -6 6 -1 11 2 17 5 13 3 -3 4 -12 1 -19z m48 12 c3
-5 1 -10 -4 -10 -6 0 -11 5 -11 10 0 6 2 10 4 10 3 0 8 -4 11 -10z m255 -15
c0 -14 -4 -25 -10 -25 -5 0 -10 11 -10 25 0 14 5 25 10 25 6 0 10 -11 10 -25z
m-40 -5 c0 -11 -4 -20 -10 -20 -5 0 -10 9 -10 20 0 11 5 20 10 20 6 0 10 -9
10 -20z m-155 1 c3 -5 1 -12 -5 -16 -5 -3 -10 1 -10 9 0 18 6 21 15 7z m-45
-11 c0 -5 -8 -10 -17 -10 -15 0 -16 2 -3 10 19 12 20 12 20 0z m-90 -10 c0 -5
-2 -10 -4 -10 -3 0 -8 5 -11 10 -3 6 -1 10 4 10 6 0 11 -4 11 -10z m-1722 -36
c-7 -6 -70 -8 -108 -4 -14 2 4 6 40 9 66 6 78 5 68 -5z m29 -21 c-3 -10 -5 -4
-5 12 0 17 2 24 5 18 2 -7 2 -21 0 -30z m53 33 c0 -3 -4 -8 -10 -11 -5 -3 -10
-1 -10 4 0 6 5 11 10 11 6 0 10 -2 10 -4z m89 -12 c2 -2 -7 -4 -22 -4 -14 0
-29 5 -32 10 -6 10 42 4 54 -6z m728 10 c-10 -11 -105 -16 -110 -7 -3 5 22 10
56 11 33 2 58 0 54 -4z m193 -6 c0 -11 -22 -10 -39 1 -10 7 -7 9 12 8 15 -1
27 -5 27 -9z m80 2 c0 -5 -2 -10 -4 -10 -3 0 -8 5 -11 10 -3 6 -1 10 4 10 6 0
11 -4 11 -10z m73 3 c-13 -2 -33 -2 -45 0 -13 2 -3 4 22 4 25 0 35 -2 23 -4z
m480 -80 c3 -47 1 -83 -4 -83 -5 0 -9 39 -9 87 0 47 2 84 4 82 2 -2 7 -41 9
-86z m38 40 c0 -27 1 -65 3 -86 2 -21 -1 -40 -5 -42 -4 -3 -9 35 -11 85 -2 49
0 90 5 90 4 0 7 -21 8 -47z m46 41 c-3 -3 -12 -4 -19 -1 -8 3 -5 6 6 6 11 1
17 -2 13 -5z m-170 -86 c-2 -18 -4 -6 -4 27 0 33 2 48 4 33 2 -15 2 -42 0 -60z
m183 -33 c0 -105 -12 -139 -24 -67 -3 20 -6 67 -6 105 0 53 3 67 15 67 12 0
15 -18 15 -105z m-143 28 c-2 -16 -4 -5 -4 22 0 28 2 40 4 28 2 -13 2 -35 0
-50z m180 20 c-3 -10 -5 -4 -5 12 0 17 2 24 5 18 2 -7 2 -21 0 -30z m-1966 17
c16 0 29 -4 29 -9 0 -12 -160 -20 -185 -9 -18 8 -18 8 2 4 12 -2 39 2 60 10
21 7 44 11 51 9 8 -3 27 -5 43 -5z m106 -12 c-3 -8 -6 -5 -6 6 -1 11 2 17 5
13 3 -3 4 -12 1 -19z m-37 2 c0 -5 -2 -10 -4 -10 -3 0 -8 5 -11 10 -3 6 -1 10
4 10 6 0 11 -4 11 -10z m1940 -10 c0 -5 -5 -10 -11 -10 -5 0 -7 5 -4 10 3 6 8
10 11 10 2 0 4 -4 4 -10z m-303 -22 c-3 -8 -6 -5 -6 6 -1 11 2 17 5 13 3 -3 4
-12 1 -19z m450 -10 c-3 -7 -5 -2 -5 12 0 14 2 19 5 13 2 -7 2 -19 0 -25z m40
0 c-3 -8 -6 -5 -6 6 -1 11 2 17 5 13 3 -3 4 -12 1 -19z m-397 -50 c0 -5 -4 -8
-10 -8 -5 0 -10 10 -10 23 0 18 2 19 10 7 5 -8 10 -18 10 -22z m167 -5 c-3
-10 -5 -4 -5 12 0 17 2 24 5 18 2 -7 2 -21 0 -30z m40 -10 c-3 -10 -5 -2 -5
17 0 19 2 27 5 18 2 -10 2 -26 0 -35z m39 22 c1 -8 -2 -15 -7 -15 -5 0 -9 10
-9 22 0 23 12 17 16 -7z m-326 -6 c0 -6 -4 -7 -10 -4 -5 3 -10 11 -10 16 0 6
5 7 10 4 6 -3 10 -11 10 -16z m1745 11 c3 -6 -1 -7 -9 -4 -18 7 -21 14 -7 14
6 0 13 -4 16 -10z m-1705 -10 c0 -5 -4 -10 -10 -10 -5 0 -10 5 -10 10 0 6 5
10 10 10 6 0 10 -4 10 -10z m317 -22 c-3 -7 -5 -2 -5 12 0 14 2 19 5 13 2 -7
2 -19 0 -25z m80 0 c-3 -7 -5 -2 -5 12 0 14 2 19 5 13 2 -7 2 -19 0 -25z
m1453 -27 c113 -23 229 -44 259 -48 l54 -6 -8 -181 c-4 -100 -11 -186 -16
-192 -5 -6 -7 -14 -4 -17 3 -4 2 -5 -1 -3 -3 2 -6 8 -6 13 -2 23 -187 111
-207 99 -7 -4 -11 1 -11 14 0 18 -2 19 -14 7 -8 -8 -14 -22 -13 -32 1 -10 -4
-20 -10 -22 -7 -3 -13 0 -13 7 0 6 6 8 13 4 9 -5 9 -4 0 6 -10 10 -20 11 -47
3 -31 -10 -93 -2 -183 23 -7 2 -13 13 -13 24 0 11 -4 20 -9 20 -5 0 -8 -7 -7
-16 0 -9 -4 -19 -10 -21 -18 -6 -24 48 -24 207 0 155 2 163 45 156 11 -2 112
-22 225 -45z m-1966 -6 c3 -8 1 -15 -4 -15 -6 0 -10 7 -10 15 0 8 2 15 4 15 2
0 6 -7 10 -15z m40 0 c3 -8 1 -15 -4 -15 -6 0 -10 7 -10 15 0 8 2 15 4 15 2 0
6 -7 10 -15z m51 -5 c7 0 16 6 18 13 3 7 6 5 6 -5 1 -13 -7 -18 -29 -18 -24 0
-28 3 -23 17 4 11 8 12 11 5 2 -7 10 -12 17 -12z m69 5 c3 -8 1 -15 -4 -15 -6
0 -10 7 -10 15 0 8 2 15 4 15 2 0 6 -7 10 -15z m36 0 c0 -8 -4 -15 -8 -15 -5
0 -9 7 -9 15 0 8 4 15 9 15 4 0 8 -7 8 -15z m40 5 c0 -5 -4 -10 -10 -10 -5 0
-10 5 -10 10 0 6 5 10 10 10 6 0 10 -4 10 -10z m-363 -33 c0 -7 -9 -14 -20
-14 -19 -2 -19 -2 -1 12 11 8 19 15 20 15 0 0 1 -6 1 -13z m53 -32 c0 -8 -4
-16 -9 -19 -12 -8 -41 4 -41 16 0 6 7 8 14 5 10 -4 13 -1 9 9 -4 10 0 12 11 8
9 -3 16 -12 16 -19z m598 -2 c-10 -2 -26 -2 -35 0 -10 3 -2 5 17 5 19 0 27 -2
18 -5z m1835 -10 c4 -2 7 -85 7 -184 0 -118 3 -178 10 -174 6 4 10 75 10 181
0 162 1 175 18 171 9 -3 64 -15 122 -27 58 -12 141 -30 185 -40 44 -10 135
-28 203 -41 l122 -24 0 -249 c0 -137 2 -247 4 -245 2 2 7 112 10 243 3 131 7
240 8 242 2 1 26 -2 54 -8 47 -9 53 -13 74 -57 22 -44 23 -59 26 -311 2 -146
1 -258 -2 -250 -9 21 -35 40 -53 40 -10 -1 -7 -6 9 -15 14 -8 22 -14 19 -15
-13 0 -74 24 -80 32 -8 12 -170 68 -163 57 7 -12 -4 -10 -46 7 l-35 14 35 -5
c32 -5 33 -4 10 6 -14 6 -43 11 -65 10 -23 0 -34 3 -26 8 10 6 9 10 -4 15 -9
3 -22 3 -27 -1 -7 -3 -8 -1 -4 5 4 7 5 12 2 12 -2 0 -13 3 -23 7 -16 6 -16 5
-4 -10 21 -26 4 -33 -22 -10 -35 32 -48 37 -40 16 6 -16 5 -16 -10 -4 -9 7
-25 10 -34 7 -15 -5 -14 -3 2 10 19 16 19 16 -8 10 -20 -5 -29 -2 -33 9 -4 8
-10 15 -16 15 -5 0 -6 -4 -3 -10 3 -5 2 -10 -4 -10 -6 0 -15 8 -20 19 -6 10
-27 22 -48 26 -28 5 -33 9 -22 17 10 7 6 8 -16 4 -22 -5 -26 -4 -15 4 8 5 11
10 5 11 -10 1 -20 3 -40 8 -5 2 1 7 15 12 19 7 14 8 -23 5 -38 -3 -47 -1 -43
10 3 8 1 14 -5 14 -6 0 -9 6 -6 14 5 12 -57 52 -75 48 -12 -3 -13 109 -2 295
l6 103 27 -6 c14 -4 29 -9 34 -11z m-2563 -3 c-14 -4 -34 -8 -45 -8 -16 0 -15
2 5 8 14 4 34 8 45 8 16 0 15 -2 -5 -8z m-45 -40 c17 -7 15 -9 -12 -9 -18 -1
-33 4 -33 9 0 12 17 12 45 0z m3656 -20 c38 0 10 -45 -35 -56 -27 -6 -29 -5
-23 17 4 13 7 34 7 47 0 21 1 22 16 8 8 -9 24 -16 35 -16z m639 -6 c0 -2 -7
-4 -15 -4 -8 0 -15 4 -15 10 0 5 7 7 15 4 8 -4 15 -8 15 -10z m-3436 -44 c-11
-10 -128 -19 -117 -9 4 4 22 9 38 11 60 7 88 7 79 -2z m-1029 -30 c-3 -5 -15
-10 -26 -10 -11 0 -17 5 -14 10 3 6 15 10 26 10 11 0 17 -4 14 -10z m65 -30
c-8 -5 -19 -10 -25 -10 -5 0 -3 5 5 10 8 5 20 10 25 10 6 0 3 -5 -5 -10z m990
-45 c0 -1 -11 -5 -24 -7 -16 -3 -23 -1 -19 7 3 10 43 10 43 0z m164 -27 c-3
-4 -9 -8 -15 -8 -5 0 -9 4 -9 8 0 5 7 9 15 9 8 0 12 -4 9 -9z m-100 -10 c-7
-11 -32 -10 -39 2 -3 6 4 9 19 8 13 -1 22 -6 20 -10z m-1017 -38 c9 0 14 -3
10 -6 -3 -4 -18 -4 -32 0 -21 5 -23 9 -13 20 11 12 13 12 16 0 2 -8 11 -14 19
-14z m2097 -68 c27 -2 54 2 59 7 17 17 26 13 20 -9 -3 -11 0 -27 7 -35 10 -12
9 -16 -4 -21 -9 -3 -16 -11 -16 -16 0 -6 24 -7 63 -4 104 11 150 8 228 -13 40
-12 84 -21 96 -21 13 0 23 -4 23 -10 0 -5 -18 -10 -40 -10 -22 0 -40 -4 -40
-9 0 -5 -9 -7 -20 -4 -21 6 -28 -12 -7 -20 24 -9 -2 -18 -84 -28 -110 -15
-109 -15 -109 -42 0 -49 44 -51 261 -11 l36 6 -5 -77 c-3 -57 -2 -76 7 -71 6
4 11 35 11 76 0 77 0 77 80 81 124 5 135 -12 20 -30 -72 -12 -79 -15 -76 -35
2 -11 0 -28 -5 -37 -15 -29 62 -32 202 -9 133 22 214 26 223 11 4 -5 -6 -12
-21 -15 -16 -3 -68 -13 -117 -22 -65 -13 -84 -19 -69 -25 17 -6 20 -14 16 -43
l-5 -36 79 5 c43 3 137 16 210 28 108 19 138 21 170 11 36 -10 37 -11 13 -18
-14 -4 -68 -15 -120 -25 -60 -12 -94 -23 -92 -30 2 -10 10 -65 11 -83 1 -4 8
-5 16 -2 9 4 15 0 15 -7 0 -11 3 -11 10 1 8 13 10 12 10 -2 0 -10 1 -18 3 -18
14 0 361 72 368 76 5 3 9 -6 9 -20 0 -18 -6 -27 -22 -31 -247 -54 -258 -58
-207 -73 18 -6 60 -20 92 -31 62 -23 80 -21 70 7 -5 14 -4 15 8 4 8 -7 14 -20
14 -30 0 -10 9 -18 23 -20 12 -2 22 -8 22 -13 0 -18 -48 -8 -175 35 -261 89
-419 145 -450 161 -18 8 -37 15 -42 15 -20 0 -279 102 -294 116 -8 8 -24 14
-35 14 -11 0 -45 12 -75 26 -29 14 -79 38 -109 52 -98 47 -223 121 -273 162
-47 39 -76 73 -70 83 3 5 5 42 5 81 l-2 71 18 -35 c16 -32 21 -35 66 -38z
m-2084 39 c0 -10 -30 -24 -37 -17 -3 3 -2 9 2 15 8 13 35 15 35 2z m-33 -37
c-3 -3 -12 -4 -19 -1 -8 3 -5 6 6 6 11 1 17 -2 13 -5z m-138 -28 c-30 -16
-201 -29 -173 -13 9 5 49 11 87 13 39 3 73 6 75 9 3 3 12 5 21 5 10 0 6 -6
-10 -14z m35 -25 c3 -5 16 -7 29 -5 20 4 20 4 2 -5 -18 -8 -17 -9 10 -13 17
-3 7 -5 -23 -5 -34 0 -48 4 -40 9 9 6 2 8 -17 5 -16 -2 -24 -2 -17 0 6 3 12 9
12 14 0 12 37 12 44 0z m2386 -1 c10 0 11 -3 3 -11 -14 -14 -55 -8 -61 10 -4
10 1 12 19 8 13 -4 31 -7 39 -7z m-2184 -29 c-3 -5 -15 -7 -26 -4 -28 7 -25
13 6 13 14 0 23 -4 20 -9z m57 -8 c-7 -2 -19 -2 -25 0 -7 3 -2 5 12 5 14 0 19
-2 13 -5z m-380 -10 c-7 -2 -21 -2 -30 0 -10 3 -4 5 12 5 17 0 24 -2 18 -5z
m110 -50 c-7 -2 -19 -2 -25 0 -7 3 -2 5 12 5 14 0 19 -2 13 -5z m-88 -13 c3
-5 1 -10 -4 -10 -6 0 -11 5 -11 10 0 6 2 10 4 10 3 0 8 -4 11 -10z m185 0 c0
-5 -7 -10 -15 -10 -8 0 -15 5 -15 10 0 6 7 10 15 10 8 0 15 -4 15 -10z m-357
-17 c-7 -2 -19 -2 -25 0 -7 3 -2 5 12 5 14 0 19 -2 13 -5z m267 -3 c0 -5 -15
-9 -32 -9 l-33 1 30 8 c17 4 31 8 33 9 1 0 2 -3 2 -9z m163 -7 c-7 -2 -19 -2
-25 0 -7 3 -2 5 12 5 14 0 19 -2 13 -5z m100 -20 c-7 -2 -19 -2 -25 0 -7 3 -2
5 12 5 14 0 19 -2 13 -5z m-273 -7 c0 -2 -9 -6 -20 -9 -11 -3 -20 -1 -20 4 0
5 9 9 20 9 11 0 20 -2 20 -4z m63 -3 c-7 -2 -21 -2 -30 0 -10 3 -4 5 12 5 17
0 24 -2 18 -5z m104 1 c-3 -3 -12 -4 -19 -1 -8 3 -5 6 6 6 11 1 17 -2 13 -5z
m-478 -13 c18 -11 -11 -20 -54 -16 -41 3 -43 5 -20 15 26 11 57 12 74 1z m166
-1 c3 -5 -1 -10 -10 -10 -9 0 -13 5 -10 10 3 6 8 10 10 10 2 0 7 -4 10 -10z
m-58 -16 c-3 -3 -12 -4 -19 -1 -8 3 -5 6 6 6 11 1 17 -2 13 -5z m243 2 c0 -3
-4 -8 -10 -11 -5 -3 -10 -1 -10 4 0 6 5 11 10 11 6 0 10 -2 10 -4z m-470 -32
c0 -2 -9 -4 -21 -4 -11 0 -18 4 -14 10 5 8 35 3 35 -6z m83 9 c-7 -2 -21 -2
-30 0 -10 3 -4 5 12 5 17 0 24 -2 18 -5z m90 -10 c-7 -2 -19 -2 -25 0 -7 3 -2
5 12 5 14 0 19 -2 13 -5z m367 -17 c0 -2 -11 -6 -25 -8 -14 -3 -25 -1 -25 3 0
5 11 9 25 9 14 0 25 -2 25 -4z m11 -48 c-21 -6 -37 -6 -43 0 -6 6 7 10 34 10
l43 0 -34 -10z m-181 -38 c0 -5 -4 -10 -10 -10 -5 0 -10 5 -10 10 0 6 5 10 10
10 6 0 10 -4 10 -10z m-567 -7 c-7 -2 -19 -2 -25 0 -7 3 -2 5 12 5 14 0 19 -2
13 -5z m802 -33 c3 -5 -1 -10 -9 -10 -9 0 -16 5 -16 10 0 6 4 10 9 10 6 0 13
-4 16 -10z m0 -30 c-3 -5 -13 -10 -21 -10 -8 0 -12 5 -9 10 3 6 13 10 21 10 8
0 12 -4 9 -10z m-800 -10 c17 -7 14 -9 -13 -9 -20 -1 -31 3 -27 9 7 12 13 12
40 0z m2702 -42 c-3 -7 -5 -2 -5 12 0 14 2 19 5 13 2 -7 2 -19 0 -25z m-2740
16 c-3 -3 -12 -4 -19 -1 -8 3 -5 6 6 6 11 1 17 -2 13 -5z m938 -2 c-37 -4 -38
-5 -15 -13 16 -6 8 -6 -25 -3 -27 4 -86 6 -130 7 l-80 0 70 7 c79 7 243 9 180
2z m-100 -50 c-3 -3 -11 0 -18 7 -9 10 -8 11 6 5 10 -3 15 -9 12 -12z m1893
-49 c-5 -38 -13 -84 -17 -104 -6 -28 -4 -40 12 -60 19 -23 19 -24 1 -28 -11
-2 -22 -8 -26 -15 -12 -17 1 163 13 185 7 14 6 19 -3 20 -10 0 -10 2 0 6 6 2
12 15 12 27 0 19 7 36 15 36 1 0 -2 -30 -7 -67z m1692 41 c13 -5 13 -6 0 -14
-23 -15 -70 -12 -70 3 0 25 15 28 70 11z m-1895 -29 l-30 -13 40 -4 c31 -2 41
-7 43 -23 5 -39 -12 -47 -119 -55 -57 -5 -149 -14 -204 -19 -95 -10 -494 -43
-690 -56 -49 -4 -110 -9 -135 -11 -25 -2 -164 -13 -310 -25 -146 -11 -314 -24
-375 -29 -60 -5 -126 -9 -145 -8 -32 0 -31 1 11 8 58 10 186 22 219 21 14 -1
56 4 95 10 38 6 92 12 119 13 30 1 51 6 53 14 3 6 0 12 -7 12 -6 0 -8 -5 -4
-11 5 -9 -7 -10 -43 -5 -29 3 -63 2 -78 -4 -24 -9 -132 -3 -122 7 2 2 69 8
148 13 79 5 176 12 214 15 39 3 171 12 295 20 323 22 487 34 550 41 30 4 123
7 205 8 94 2 158 7 172 14 27 15 55 16 33 2 -11 -7 2 -10 43 -8 55 1 93 17 45
19 -22 0 -22 1 -3 10 23 11 -144 5 -300 -10 -203 -20 -552 -46 -617 -46 -38 0
-68 -3 -68 -6 0 -3 -100 -11 -222 -18 -123 -6 -269 -16 -326 -22 -104 -10
-141 -5 -106 14 18 10 17 11 -6 17 -14 3 58 12 160 18 102 7 271 19 375 27
210 17 355 27 675 50 118 9 262 19 320 24 58 4 110 8 115 9 6 0 -3 -6 -20 -13z
m-1807 -22 c-10 -2 -26 -2 -35 0 -10 3 -2 5 17 5 19 0 27 -2 18 -5z m-888 -7
c0 -2 -7 -7 -16 -10 -8 -3 -12 -2 -9 4 6 10 25 14 25 6z m897 -13 c-20 -2 -52
-2 -70 0 -17 2 0 4 38 4 39 0 53 -2 32 -4z m-247 -13 c0 -5 -5 -10 -11 -10 -5
0 -7 5 -4 10 3 6 8 10 11 10 2 0 4 -4 4 -10z m357 -6 c-3 -3 -12 -4 -19 -1 -8
3 -5 6 6 6 11 1 17 -2 13 -5z m86 -1 c-7 -2 -21 -2 -30 0 -10 3 -4 5 12 5 17
0 24 -2 18 -5z m-1076 -9 c-3 -3 -12 -4 -19 -1 -8 3 -5 6 6 6 11 1 17 -2 13
-5z m840 0 c-3 -3 -12 -4 -19 -1 -8 3 -5 6 6 6 11 1 17 -2 13 -5z m3783 -8 c0
-3 -4 -8 -10 -11 -5 -3 -10 -1 -10 4 0 6 5 11 10 11 6 0 10 -2 10 -4z m-3775
-16 c-3 -5 -18 -9 -33 -9 l-27 1 30 8 c17 4 31 8 33 9 2 0 0 -3 -3 -9z m105 6
c0 -2 -9 -6 -20 -9 -11 -3 -18 -1 -14 4 5 9 34 13 34 5z m37 -2 c-3 -3 -12 -4
-19 -1 -8 3 -5 6 6 6 11 1 17 -2 13 -5z m4583 -35 c0 -5 -12 -3 -27 3 -37 16
-36 15 -28 27 7 12 55 -15 55 -30z m-4565 11 c-3 -5 -14 -10 -23 -9 -14 0 -13
2 3 9 27 11 27 11 20 0z m1711 -6 c-3 -9 -6 -19 -6 -24 0 -4 -46 -11 -102 -15
-57 -4 -143 -11 -193 -16 -196 -20 -414 -40 -715 -64 -173 -14 -333 -28 -355
-30 -50 -7 -458 -35 -502 -35 -18 0 -33 5 -33 11 0 7 17 10 45 7 25 -2 45 0
45 4 0 5 12 8 26 8 14 0 23 4 20 9 -8 13 31 21 106 21 56 0 66 -3 62 -15 -4
-8 -1 -15 5 -15 6 0 11 8 11 18 0 16 17 20 163 31 188 14 225 17 367 31 58 5
179 14 270 20 91 6 181 13 200 15 19 3 148 14 285 25 138 12 255 23 260 25 27
10 47 4 41 -11z m-1821 -9 c-16 -7 -36 -10 -45 -7 -11 5 -9 8 10 13 14 4 34 7
45 7 15 0 12 -3 -10 -13z m-458 -1 c-3 -3 -12 -4 -19 -1 -8 3 -5 6 6 6 11 1
17 -2 13 -5z m340 0 c-3 -3 -12 -4 -19 -1 -8 3 -5 6 6 6 11 1 17 -2 13 -5z
m236 -21 c-7 -2 -19 -2 -25 0 -7 3 -2 5 12 5 14 0 19 -2 13 -5z m3529 -16 c14
-1 24 -7 21 -13 -2 -6 24 -19 58 -29 33 -10 63 -25 66 -32 3 -8 13 -11 24 -8
11 4 19 2 19 -5 0 -6 5 -8 10 -5 8 5 7 12 -2 23 -8 10 -9 13 -1 9 6 -4 40 0
75 9 242 61 326 75 313 54 -6 -9 10 -14 43 -13 6 1 12 -3 12 -8 0 -5 7 -9 16
-9 11 0 14 6 9 23 l-7 22 16 -22 c9 -11 17 -29 19 -40 2 -10 9 -31 15 -46 15
-36 15 -44 0 -29 -15 15 -45 15 -54 0 -4 -6 1 -17 11 -25 16 -11 16 -13 3 -13
-15 0 -28 19 -28 40 0 5 10 18 22 30 12 11 17 20 11 20 -23 0 -46 -39 -40 -69
6 -29 5 -30 -51 -41 -31 -6 -63 -13 -69 -15 -7 -2 -33 4 -57 15 -24 10 -66 21
-93 25 -60 8 -154 34 -169 46 -8 6 -58 0 -139 -16 -70 -14 -135 -25 -143 -23
-9 2 40 14 110 28 l126 24 -76 24 c-96 31 -122 47 -115 73 4 14 8 17 13 9 4
-7 19 -13 32 -13z m-1837 -24 c-4 -16 -8 -29 -9 -31 -2 -1 -57 -7 -122 -13
-66 -5 -157 -14 -204 -19 -73 -8 -180 -18 -480 -45 -36 -3 -121 -10 -190 -16
-69 -5 -145 -12 -170 -14 -334 -36 -816 -70 -823 -58 -3 5 6 10 21 11 15 1 33
9 42 18 16 17 6 17 -135 -1 -34 -5 -36 -4 -16 5 21 9 95 17 321 35 36 3 94 7
130 10 36 3 117 10 180 15 203 16 717 61 875 75 28 3 97 10 155 16 94 11 348
34 409 38 21 1 22 -2 16 -26z m-2978 -39 c-3 -3 -12 -4 -19 -1 -8 3 -5 6 6 6
11 1 17 -2 13 -5z m3192 -7 c8 -11 5 -13 -19 -9 -17 2 -30 8 -30 13 0 14 36
11 49 -4z m-2272 -13 c-3 -3 -12 -4 -19 -1 -8 3 -5 6 6 6 11 1 17 -2 13 -5z
m2043 -4 c-8 -5 -24 -9 -35 -9 -16 1 -16 2 5 9 35 11 48 11 30 0z m152 -30 c1
-31 2 -31 42 -26 43 6 27 -5 -26 -18 -28 -6 -28 -6 -28 40 0 52 11 55 12 4z
m-1952 19 c-25 -4 -56 -7 -70 -7 l-25 0 25 8 c14 4 45 8 70 8 l45 -1 -45 -8z
m1705 -14 c-39 -24 -42 -35 -4 -15 13 7 19 7 19 0 0 -5 8 -10 18 -11 42 -2
-42 -17 -134 -24 -54 -4 -112 -9 -129 -11 -16 -2 -138 -12 -270 -23 -132 -12
-262 -23 -290 -26 -27 -2 -126 -11 -220 -20 -93 -8 -297 -26 -452 -40 -155
-14 -297 -24 -315 -24 l-33 1 30 8 c28 7 29 8 5 10 l-25 2 25 7 c25 7 25 8 3
15 -12 4 -68 4 -125 1 -57 -4 -100 -4 -96 0 11 12 312 23 317 12 2 -5 7 -4 10
2 4 6 34 13 67 15 41 3 47 2 19 -3 l-40 -6 48 -7 c28 -3 67 0 95 7 45 13 46
13 13 14 -57 2 -31 8 64 15 98 8 110 2 24 -13 -51 -8 -48 -9 38 -8 51 1 93 5
93 9 0 4 8 7 18 6 38 -3 51 2 46 17 -4 8 -1 15 5 15 6 0 11 -6 11 -12 0 -10 2
-10 8 -1 5 7 63 16 157 22 83 6 166 13 185 16 19 3 141 14 270 25 129 11 282
24 340 30 58 5 130 11 160 13 30 2 62 4 70 5 8 1 -3 -9 -25 -23z m-1847 8
c-10 -2 -28 -2 -40 0 -13 2 -5 4 17 4 22 1 32 -1 23 -4z m-130 -10 c-10 -2
-26 -2 -35 0 -10 3 -2 5 17 5 19 0 27 -2 18 -5z m2354 -2 c13 -5 77 -19 143
-31 66 -12 139 -26 162 -31 23 -5 55 -9 72 -9 16 0 32 -3 34 -7 3 -5 -113 -8
-258 -8 -145 0 -263 1 -262 2 1 0 19 4 41 7 61 10 79 25 31 26 l-40 1 40 19
c33 16 35 19 15 18 -14 -1 -41 0 -60 1 -29 2 -32 4 -15 11 27 12 69 12 97 1z
m-2605 -17 c-3 -3 -12 -4 -19 -1 -8 3 -5 6 6 6 11 1 17 -2 13 -5z m416 -11
c-7 -2 -19 -2 -25 0 -7 3 -2 5 12 5 14 0 19 -2 13 -5z m3635 -10 c-10 -2 -26
-2 -35 0 -10 3 -2 5 17 5 19 0 27 -2 18 -5z m-98 -13 c-48 -12 -186 -24 -179
-16 3 3 39 9 80 12 41 4 76 8 78 10 2 2 16 4 30 3 22 -1 20 -2 -9 -9z m-4660
-20 c0 -5 -7 -10 -16 -10 -8 0 -12 5 -9 10 3 6 10 10 16 10 5 0 9 -4 9 -10z
m4123 -8 c212 2 308 1 252 -4 -49 -4 -209 -7 -354 -6 -225 3 -265 5 -269 18
-5 13 -3 13 12 1 14 -12 75 -13 359 -9z m-3378 -2 c-3 -5 -14 -10 -23 -10 -15
0 -15 2 -2 10 20 13 33 13 25 0z m102 4 c-3 -3 -12 -4 -19 -1 -8 3 -5 6 6 6
11 1 17 -2 13 -5z m881 -11 c-10 -2 -28 -2 -40 0 -13 2 -5 4 17 4 22 1 32 -1
23 -4z m-1883 -13 c-3 -5 -18 -10 -33 -9 -24 0 -25 1 -7 9 28 12 47 12 40 0z
m3168 0 c11 0 18 -3 14 -6 -3 -4 -61 -12 -129 -20 -68 -7 -224 -24 -348 -38
-227 -26 -564 -59 -785 -77 -66 -5 -167 -13 -225 -18 -139 -11 -147 -6 -27 19
43 9 57 15 53 26 -4 10 2 14 22 13 24 0 25 -1 7 -9 -25 -11 -27 -11 76 -16 72
-4 86 -2 86 11 0 11 -13 15 -51 17 -37 1 -42 2 -18 5 18 2 30 8 27 12 -2 5 17
9 42 9 26 1 59 4 73 7 14 2 133 14 265 25 132 11 267 23 301 26 51 5 62 4 67
-10 8 -21 54 -21 215 -1 67 8 136 13 154 11 18 -2 49 2 68 9 19 7 48 11 64 9
16 -2 38 -4 49 -4z m416 -39 l42 -50 -46 -7 c-25 -3 -49 -4 -52 0 -4 3 5 6 18
7 13 0 33 5 44 10 16 7 12 8 -17 6 -21 -2 -38 1 -38 5 0 4 10 8 23 9 21 0 21
1 2 9 -28 12 -123 12 -130 0 -4 -6 -16 -5 -33 4 -20 10 -44 11 -92 5 -115 -14
-150 -21 -150 -31 0 -4 10 -6 23 -4 52 12 91 10 82 -4 -4 -6 6 -7 24 -4 17 4
38 3 48 -1 17 -8 -613 -83 -992 -120 -88 -8 -227 -22 -310 -30 -183 -18 -458
-43 -540 -49 -56 -4 -57 -4 -20 5 44 11 73 15 155 19 l55 2 -42 11 c-43 10
-58 27 -25 27 15 0 15 2 2 11 -11 7 7 9 63 5 42 -2 77 -1 77 3 0 5 28 11 63
15 85 9 347 33 372 34 11 0 56 5 100 11 44 6 123 15 175 21 163 17 390 39 510
50 131 13 378 47 562 79 3 0 25 -21 47 -48z m-2862 -7 c-3 -3 -12 -4 -19 -1
-8 3 -5 6 6 6 11 1 17 -2 13 -5z m2570 -10 c-3 -3 -12 -4 -19 -1 -8 3 -5 6 6
6 11 1 17 -2 13 -5z m158 -24 c3 -5 -3 -10 -15 -10 -12 0 -18 5 -15 10 3 6 10
10 15 10 5 0 12 -4 15 -10z m58 3 c-7 -2 -21 -2 -30 0 -10 3 -4 5 12 5 17 0
24 -2 18 -5z m-3433 -7 c0 -2 -7 -7 -16 -10 -8 -3 -12 -2 -9 4 6 10 25 14 25
6z m1716 -11 c9 -8 11 -15 6 -15 -5 0 -15 7 -22 15 -7 8 -9 15 -6 15 4 0 14
-7 22 -15z m1597 8 c-7 -2 -19 -2 -25 0 -7 3 -2 5 12 5 14 0 19 -2 13 -5z
m-2668 -13 c4 -6 -5 -10 -20 -10 -15 0 -24 4 -20 10 3 6 12 10 20 10 8 0 17
-4 20 -10z m2795 2 c0 -4 -15 -8 -32 -9 -30 -1 -31 -1 -8 7 34 11 40 11 40 2z
m-105 -12 c-3 -5 -12 -10 -18 -10 -7 0 -6 4 3 10 19 12 23 12 15 0z m472 4
c-3 -3 -12 -4 -19 -1 -8 3 -5 6 6 6 11 1 17 -2 13 -5z m-537 -16 c-14 -6 -33
-13 -44 -17 -33 -12 117 -4 164 9 47 13 140 6 151 -11 4 -6 16 -6 33 2 19 9
29 10 38 1 12 -12 1 -15 -77 -26 -22 -3 -51 -9 -65 -12 -24 -5 -24 -5 -6 10
22 18 14 20 -46 10 -24 -4 -38 -12 -38 -22 0 -12 -10 -14 -46 -9 -29 3 -41 1
-33 -4 9 -6 1 -9 -26 -9 -22 0 -80 -7 -130 -14 -303 -49 -1397 -166 -1581
-170 -40 0 -70 -4 -67 -8 2 -5 -11 -8 -29 -8 -23 0 -29 3 -19 9 11 7 3 12 -28
21 -23 6 -39 15 -36 20 8 13 -17 18 -50 8 -44 -12 -77 -10 -73 5 3 6 13 13 24
14 10 0 98 9 194 17 489 46 709 65 747 65 24 0 47 2 52 5 5 4 74 13 153 21 78
8 195 21 258 29 63 8 142 17 175 20 33 3 94 10 135 16 244 37 306 43 270 28z
m267 6 c-3 -3 -12 -4 -19 -1 -8 3 -5 6 6 6 11 1 17 -2 13 -5z m-2348 -8 c-7
-8 -108 -10 -115 -3 -4 4 21 7 56 7 35 0 61 -2 59 -4z m351 -6 c0 -5 -9 -10
-19 -10 -10 0 -21 -7 -25 -15 -4 -10 -20 -15 -52 -15 -59 0 -52 8 28 30 35 10
64 18 66 19 1 1 2 -3 2 -9z m-238 -52 c-20 -7 -36 -7 -42 -2 -5 5 8 10 33 11
l42 1 -33 -10z m81 5 c-7 -2 -21 -2 -30 0 -10 3 -4 5 12 5 17 0 24 -2 18 -5z
m2050 0 c-7 -2 -19 -2 -25 0 -7 3 -2 5 12 5 14 0 19 -2 13 -5z m212 -13 c4 -6
11 -7 17 -4 6 4 8 2 5 -3 -4 -6 5 -22 19 -36 l26 -26 -24 -5 c-12 -3 -54 -8
-93 -11 -75 -5 -628 -75 -983 -124 -417 -58 -807 -101 -947 -105 -52 -1 -98
-5 -102 -9 -11 -11 -23 -8 -21 6 2 6 -6 12 -17 13 -51 3 -57 7 -20 15 22 4 57
8 79 8 30 1 37 4 32 16 -4 12 0 14 21 9 14 -4 24 -3 20 2 -3 5 39 9 95 10 70
0 102 5 108 14 5 8 18 10 36 6 21 -5 25 -4 14 4 -8 5 -37 10 -65 10 -37 0 -46
-3 -35 -10 10 -7 -2 -8 -40 -4 -30 4 -56 8 -58 9 -2 2 30 6 70 9 40 4 109 11
153 16 155 18 186 19 180 10 -4 -6 6 -10 22 -10 20 0 24 3 14 9 -10 6 -2 11
25 15 61 9 577 66 652 71 37 3 90 7 117 10 51 5 43 0 -35 -23 -29 -8 -24 -9
30 -5 36 4 68 11 72 17 5 8 8 7 8 -1 0 -7 8 -13 18 -13 15 0 15 2 2 11 -11 7
-4 8 24 3 27 -5 37 -3 32 4 -4 7 3 8 25 2 32 -10 116 -3 134 10 6 4 69 11 140
14 72 4 139 9 150 10 11 2 31 4 44 5 19 1 21 4 12 15 -10 11 -8 15 6 20 12 3
10 5 -7 4 -41 -1 -47 4 -15 12 44 11 53 11 60 0z m2129 -20 c6 0 19 -9 29 -20
17 -20 16 -21 -9 -30 -33 -13 -41 -6 -23 17 7 10 9 15 5 11 -11 -10 -36 23
-28 36 3 6 7 5 10 -2 2 -7 9 -12 16 -12z m-2227 4 c-3 -3 -12 -4 -19 -1 -8 3
-5 6 6 6 11 1 17 -2 13 -5z m-2094 -11 c-7 -2 -19 -2 -25 0 -7 3 -2 5 12 5 14
0 19 -2 13 -5z m2012 -3 c3 -6 -1 -7 -9 -4 -18 7 -21 14 -7 14 6 0 13 -4 16
-10z m-112 -7 c-7 -2 -21 -2 -30 0 -10 3 -4 5 12 5 17 0 24 -2 18 -5z m72 -3
c3 -6 -1 -7 -9 -4 -18 7 -21 14 -7 14 6 0 13 -4 16 -10z m-2118 -6 c-3 -3 -12
-4 -19 -1 -8 3 -5 6 6 6 11 1 17 -2 13 -5z m-70 -20 c-3 -3 -12 -4 -19 -1 -8
3 -5 6 6 6 11 1 17 -2 13 -5z m31 -41 c-10 -2 -26 -2 -35 0 -10 3 -2 5 17 5
19 0 27 -2 18 -5z m2467 -3 c-3 -5 -15 -10 -26 -10 -10 0 -19 5 -19 10 0 6 12
10 26 10 14 0 23 -4 19 -10z m-2808 -7 c-9 -2 -15 -8 -12 -12 3 -6 -38 -7 -75
-1 -20 3 27 15 62 17 23 0 35 -1 25 -4z m2636 -16 c-43 -8 -53 -19 -32 -33 6
-3 14 -1 18 5 4 6 14 9 22 6 9 -3 24 3 34 15 10 11 25 20 34 19 10 0 12 -2 4
-6 -18 -7 -16 -21 5 -26 13 -4 13 -5 -4 -6 -12 0 -34 -7 -49 -15 l-28 -14 28
-4 c46 -5 43 -28 -2 -28 -36 0 -125 -11 -578 -70 -88 -12 -180 -24 -205 -27
-25 -2 -163 -20 -307 -39 -274 -36 -301 -38 -268 -24 18 8 17 9 -8 9 -16 1
-26 -3 -23 -8 8 -13 -18 -18 -274 -47 -277 -33 -357 -39 -241 -18 92 16 113
24 62 24 -30 0 -33 2 -29 25 4 19 1 25 -13 25 -33 0 -20 19 19 29 41 11 267
31 322 29 19 -1 47 2 63 6 24 7 26 6 21 -10 -5 -18 -5 -18 8 -2 8 9 35 19 62
22 26 3 51 8 56 11 12 7 188 31 400 55 211 24 379 44 480 59 41 6 111 13 155
15 71 5 254 31 280 40 6 2 15 1 20 -3 6 -3 -9 -9 -32 -14z m-2329 -24 c-21
-16 -41 -17 -49 -3 -4 6 -13 7 -23 1 -23 -11 -182 -22 -161 -11 21 12 130 26
197 26 46 0 51 -2 36 -13z m2572 -11 c-3 -3 2 -10 11 -17 13 -10 -1 -13 -77
-19 -51 -4 -95 -4 -98 -1 -12 12 22 31 76 41 54 10 99 8 88 -4z m521 2 c-3 -3
-12 -4 -19 -1 -8 3 -5 6 6 6 11 1 17 -2 13 -5z m-34 -41 c-7 -2 -21 -2 -30 0
-10 3 -4 5 12 5 17 0 24 -2 18 -5z m-3025 -20 c-10 -2 -28 -2 -40 0 -13 2 -5
4 17 4 22 1 32 -1 23 -4z m327 -13 c-3 -5 -12 -7 -20 -3 -21 7 -19 13 6 13 11
0 18 -4 14 -10z m2435 -8 c3 -3 -1 -7 -7 -9 -19 -7 -16 -21 7 -28 25 -8 26
-21 3 -29 -10 -3 -24 -9 -30 -12 -8 -3 -13 1 -13 9 0 9 8 18 18 21 9 2 6 4 -8
3 -14 -2 -24 -8 -22 -15 3 -18 -19 -15 -33 5 -9 12 -9 24 -2 44 10 24 14 27
46 22 20 -3 38 -8 41 -11z m267 2 c-3 -3 -12 -4 -19 -1 -8 3 -5 6 6 6 11 1 17
-2 13 -5z m40 0 c-3 -3 -12 -4 -19 -1 -8 3 -5 6 6 6 11 1 17 -2 13 -5z m-700
-10 c-3 -3 -12 -4 -19 -1 -8 3 -5 6 6 6 11 1 17 -2 13 -5z m-2524 -31 c-7 -2
-19 -2 -25 0 -7 3 -2 5 12 5 14 0 19 -2 13 -5z m2444 -9 c-3 -3 -12 -4 -19 -1
-8 3 -5 6 6 6 11 1 17 -2 13 -5z m613 -10 c0 -8 -4 -12 -10 -9 -5 3 -10 10
-10 16 0 5 5 9 10 9 6 0 10 -7 10 -16z m53 -1 c-7 -2 -19 -2 -25 0 -7 3 -2 5
12 5 14 0 19 -2 13 -5z m-1123 -23 c0 -5 -10 -10 -22 -10 -19 0 -20 2 -8 10
19 13 30 13 30 0z m-1597 -7 c-7 -2 -21 -2 -30 0 -10 3 -4 5 12 5 17 0 24 -2
18 -5z m2982 -3 c3 -5 1 -10 -4 -10 -6 0 -11 5 -11 10 0 6 2 10 4 10 3 0 8 -4
11 -10z m-2811 -21 c-3 -6 -15 -9 -25 -6 -11 3 -17 1 -13 -4 4 -7 -90 -15
-120 -10 -5 1 -16 -1 -24 -4 -12 -4 -9 -9 13 -21 19 -10 31 -11 33 -5 2 6 11
11 20 11 13 0 12 -4 -6 -20 -23 -22 -42 -26 -42 -9 0 7 -10 5 -25 -5 -13 -9
-30 -16 -37 -16 -9 0 -9 3 2 10 8 5 11 10 5 10 -5 0 -4 4 4 9 12 8 12 13 3 24
-9 11 -30 14 -80 11 l-67 -3 54 10 c139 24 316 35 305 18z m2741 -40 c-29 -11
-32 -11 -38 4 -4 10 3 12 27 9 27 -4 28 -6 11 -13z m-3130 1 c-11 -5 -40 -8
-65 -8 -37 0 -41 1 -20 8 36 11 112 11 85 0z m335 -10 c0 -5 -5 -10 -11 -10
-5 0 -7 5 -4 10 3 6 8 10 11 10 2 0 4 -4 4 -10z m2887 -6 c-3 -3 -12 -4 -19
-1 -8 3 -5 6 6 6 11 1 17 -2 13 -5z m-604 -21 c-7 -2 -21 -2 -30 0 -10 3 -4 5
12 5 17 0 24 -2 18 -5z m613 -9 c13 -3 24 -11 24 -16 0 -7 4 -7 13 -1 6 6 24
13 39 15 24 4 26 3 17 -13 -5 -10 -16 -16 -23 -13 -8 3 -24 1 -35 -6 -14 -7
-21 -7 -21 0 0 5 -5 10 -11 10 -6 0 -23 10 -37 22 -17 13 -20 19 -9 15 11 -4
30 -10 43 -13z m-2917 -20 c2 -2 -12 -4 -32 -4 -19 0 -43 -3 -51 -6 -12 -4
-15 -2 -10 9 4 11 16 14 47 10 23 -3 44 -7 46 -9z m2761 6 c0 -5 -7 -10 -15
-10 -8 0 -15 5 -15 10 0 6 7 10 15 10 8 0 15 -4 15 -10z m-2877 -17 c-7 -2
-19 -2 -25 0 -7 3 -2 5 12 5 14 0 19 -2 13 -5z m4317 -3 c11 -7 5 -10 -22 -10
-21 0 -38 5 -38 10 0 13 40 13 60 0z m-4450 -10 c-8 -5 -26 -9 -40 -9 -23 1
-23 2 5 9 43 11 52 11 35 0z m415 -7 c-16 -3 -34 -9 -39 -14 -6 -5 -18 -9 -27
-9 -9 0 -22 -7 -29 -15 -7 -8 -20 -15 -29 -14 -12 0 -12 2 4 10 20 9 -22 7
-160 -5 -47 -5 -55 -4 -35 5 13 5 36 11 50 13 14 2 57 9 95 15 85 13 131 18
170 18 l30 0 -30 -4z m3122 -4 c26 -10 27 -12 8 -19 -11 -5 -32 -9 -47 -9 -16
-1 -28 -5 -28 -11 0 -7 -40 -7 -78 -1 -2 1 3 7 10 14 41 37 84 46 135 26z
m-220 -40 c57 -24 43 -36 -17 -15 -36 13 -54 24 -47 28 7 4 8 8 4 8 -5 0 -5 5
-1 12 5 8 10 7 18 -4 6 -8 26 -21 43 -29z m959 -10 c3 -5 -13 -9 -35 -9 -38 0
-64 14 -39 22 17 6 67 -3 74 -13z m-1066 7 c0 -3 -4 -8 -10 -11 -5 -3 -10 -1
-10 4 0 6 5 11 10 11 6 0 10 -2 10 -4z m1207 -2 c-3 -3 -12 -4 -19 -1 -8 3 -5
6 6 6 11 1 17 -2 13 -5z m-3957 -14 c12 -8 11 -10 -7 -10 -13 0 -23 5 -23 10
0 13 11 13 30 0z m-1634 -47 c-10 -26 -18 -8 -9 23 5 21 8 24 11 11 2 -10 1
-25 -2 -34z m1971 -8 c0 -8 -4 -12 -8 -9 -4 2 -11 -1 -14 -6 -4 -6 -23 -10
-43 -9 -67 4 -94 0 -86 -13 6 -10 5 -10 -7 -1 -8 6 -25 13 -39 16 -16 3 -9 5
20 6 35 2 171 25 176 30 0 1 1 -6 1 -14z m1833 -4 c0 -5 -20 -11 -45 -13 -48
-3 -48 8 0 15 17 2 33 5 38 6 4 0 7 -3 7 -8z m-3777 -37 c5 -28 4 -31 -14 -27
-14 4 -17 9 -9 18 5 6 7 15 4 18 -3 3 -3 11 1 17 9 14 11 12 18 -26z m1995 5
c-7 -5 -24 -9 -38 -8 l-25 0 24 13 c28 15 64 10 39 -5z m-283 -7 c-3 -3 -11 0
-18 7 -9 10 -8 11 6 5 10 -3 15 -9 12 -12z m-79 -19 c-1 -1 -12 0 -25 4 -15 4
-19 8 -10 13 10 7 42 -10 35 -17z m253 14 c-9 -7 -14 -18 -12 -24 4 -10 -13
-13 -64 -11 -41 1 -53 3 -30 5 20 2 35 8 32 14 -4 5 6 9 20 9 15 0 24 4 20 10
-4 6 6 10 22 10 24 -1 26 -2 12 -13z m-861 -24 c-10 -2 -26 -2 -35 0 -10 3 -2
5 17 5 19 0 27 -2 18 -5z m-1028 -73 c11 17 19 -27 24 -127 2 -39 7 -77 11
-83 4 -7 -1 -19 -10 -28 -10 -10 -15 -11 -11 -4 8 13 -18 45 -28 35 -3 -4 -6
3 -6 15 0 12 -3 22 -8 22 -4 0 -5 21 -3 47 3 43 5 45 17 28 17 -23 25 -17 17
13 -3 13 -12 21 -22 20 -10 -2 -16 4 -15 15 0 9 2 36 3 60 l3 42 10 -34 c7
-25 12 -31 18 -21z m1800 46 c0 -3 -4 -8 -10 -11 -5 -3 -10 -1 -10 4 0 6 5 11
10 11 6 0 10 -2 10 -4z m-275 -36 c4 -6 -16 -10 -52 -9 -44 1 -52 3 -33 9 36
12 78 12 85 0z m290 0 c-4 -6 9 -10 32 -11 31 -1 27 -3 -21 -10 -33 -5 -62 -7
-64 -4 -3 3 4 5 16 5 12 0 22 5 22 11 0 6 -9 8 -22 4 -18 -5 -20 -4 -8 4 19
14 53 14 45 1z m365 -20 c0 -5 -2 -10 -4 -10 -3 0 -8 5 -11 10 -3 6 -1 10 4
10 6 0 11 -4 11 -10z m-49 -9 c-10 -7 -8 -12 10 -25 14 -9 18 -16 10 -16 -8 0
-22 7 -31 15 -12 11 -24 12 -45 6 l-30 -9 33 -1 c17 -1 32 -5 32 -11 0 -14
-46 -12 -62 3 -20 18 -93 20 -108 2 -11 -13 -7 -14 34 -9 28 4 46 3 46 -3 0
-6 -12 -10 -27 -9 -16 0 -49 -3 -75 -7 -32 -6 -48 -5 -48 2 0 6 9 11 21 11 11
0 18 4 15 8 -6 10 -36 9 -53 -1 -6 -4 -18 -4 -27 -1 -9 3 -22 2 -29 -3 -6 -5
-28 -6 -47 -3 -28 5 -14 9 67 19 56 7 106 10 112 6 6 -3 11 -1 11 5 0 8 14 11
40 8 22 -2 40 0 40 4 0 7 37 14 90 16 23 1 30 -1 21 -7z m-388 -8 c-7 -2 -21
-2 -30 0 -10 3 -4 5 12 5 17 0 24 -2 18 -5z m447 -13 c13 -8 13 -10 -2 -10 -9
0 -20 5 -23 10 -8 13 5 13 25 0z m-597 -7 c-7 -2 -19 -2 -25 0 -7 3 -2 5 12 5
14 0 19 -2 13 -5z m-118 -13 c-3 -5 -19 -10 -34 -10 -15 0 -74 -7 -131 -15
-56 -9 -108 -14 -114 -12 -14 5 87 27 173 37 98 11 113 11 106 0z m52 4 c-3
-3 -12 -4 -19 -1 -8 3 -5 6 6 6 11 1 17 -2 13 -5z m166 -21 c-7 -2 -21 -2 -30
0 -10 3 -4 5 12 5 17 0 24 -2 18 -5z m-90 -10 c-7 -2 -19 -2 -25 0 -7 3 -2 5
12 5 14 0 19 -2 13 -5z m227 -3 c0 -5 -11 -10 -25 -10 -14 0 -25 -4 -25 -10 0
-5 -4 -10 -10 -10 -20 0 -9 29 13 33 39 8 47 7 47 -3z m-700 -8 c0 -9 -169
-37 -177 -29 -6 7 29 17 100 27 74 11 77 11 77 2z m387 2 c-3 -3 -12 -4 -19
-1 -8 3 -5 6 6 6 11 1 17 -2 13 -5z m176 -11 c-7 -2 -19 -2 -25 0 -7 3 -2 5
12 5 14 0 19 -2 13 -5z m462 -3 c-18 -8 -18 -9 5 -9 20 -1 22 -3 10 -11 -12
-8 -11 -11 10 -17 17 -5 -29 -14 -140 -29 -91 -13 -173 -20 -184 -17 -10 3
-22 -1 -27 -8 -6 -11 -11 -11 -21 -1 -6 6 -21 12 -33 12 -16 0 -17 -2 -5 -10
8 -5 11 -10 5 -10 -5 0 -39 -5 -75 -11 -36 -6 -76 -12 -90 -14 -14 -2 -45 -8
-70 -14 -58 -13 -93 -14 -85 -1 3 6 0 10 -7 10 -8 0 -6 5 5 11 9 5 17 15 17
20 0 6 -6 7 -12 3 -9 -5 -10 -4 -3 4 15 16 111 20 107 4 -1 -9 5 -11 23 -6 14
3 25 2 25 -4 0 -15 104 -2 113 14 4 8 19 14 32 14 14 0 25 3 25 8 0 4 26 8 58
9 31 1 93 9 137 18 44 9 95 14 113 11 23 -3 32 -1 32 9 0 14 15 23 40 24 9 0
8 -4 -5 -9z m-328 -6 c-3 -3 -12 -4 -19 -1 -8 3 -5 6 6 6 11 1 17 -2 13 -5z
m-149 -21 c-14 -17 -104 -17 -111 0 -4 10 10 13 58 13 49 -1 61 -4 53 -13z
m217 -3 c3 -5 -1 -10 -10 -10 -9 0 -13 5 -10 10 3 6 8 10 10 10 2 0 7 -4 10
-10z m-333 -18 c9 -9 3 -12 -27 -12 -40 -1 -160 -21 -203 -35 -18 -6 -21 -4
-16 10 6 14 3 16 -14 10 -12 -3 -31 -3 -43 0 -20 7 -20 7 5 20 19 10 35 11 62
4 24 -7 45 -7 63 0 53 20 154 22 173 3z m513 -62 c-3 -5 -14 -10 -23 -9 -14 0
-13 2 3 9 27 11 27 11 20 0z m1742 -16 c-3 -3 -12 -4 -19 -1 -8 3 -5 6 6 6 11
1 17 -2 13 -5z m-3777 -24 c0 -5 -5 -10 -11 -10 -5 0 -7 5 -4 10 3 6 8 10 11
10 2 0 4 -4 4 -10z m1800 0 c0 -5 -4 -10 -10 -10 -5 0 -10 5 -10 10 0 6 5 10
10 10 6 0 10 -4 10 -10z m1974 -11 c-3 -5 -10 -7 -15 -3 -5 3 -7 10 -3 15 3 5
10 7 15 3 5 -3 7 -10 3 -15z m-1884 2 c0 -6 -4 -13 -10 -16 -5 -3 -10 1 -10 9
0 9 5 16 10 16 6 0 10 -4 10 -9z m220 -11 c0 -5 -3 -10 -7 -10 -5 0 -19 -3
-33 -6 l-25 -6 25 15 c31 18 40 20 40 7z m-2102 -30 c2 -19 1 -22 -7 -10 -5 8
-7 19 -3 25 3 5 -1 4 -10 -3 -16 -13 -34 -2 -21 12 14 14 38 0 41 -24z m1762
24 c0 -3 -6 -12 -14 -20 -16 -15 -32 -2 -21 16 7 11 35 14 35 4z m2130 -19 c0
-10 -10 -15 -27 -15 -27 1 -27 1 -9 15 25 19 36 19 36 0z m-1923 -1 c-3 -3
-12 -4 -19 -1 -8 3 -5 6 6 6 11 1 17 -2 13 -5z m-87 -14 c0 -5 -10 -10 -22
-10 -19 0 -20 2 -8 10 19 13 30 13 30 0z m-160 -25 c-10 -12 -16 -13 -29 -3
-9 7 -18 14 -20 15 -2 2 10 3 29 3 28 0 31 -2 20 -15z m-278 -10 c0 -5 -5 -11
-11 -13 -6 -2 -11 4 -11 13 0 9 5 15 11 13 6 -2 11 -8 11 -13z m-1417 -117
c-10 -30 -25 -20 -25 17 0 19 -4 35 -9 35 -5 0 -4 16 2 36 l11 35 13 -52 c7
-29 11 -60 8 -71z m1382 107 c0 -8 -7 -15 -16 -15 -9 0 -29 -7 -45 -15 -15 -8
-36 -15 -45 -15 -32 0 -32 14 1 29 73 34 105 38 105 16z m63 -19 c0 -11 -19
-15 -25 -6 -3 5 1 10 9 10 9 0 16 -2 16 -4z m-27 -37 c7 -1 1 -4 -13 -8 -29
-9 -43 -4 -34 10 3 6 13 8 21 5 8 -3 20 -6 26 -7z m-218 -9 c3 -5 -1 -10 -10
-10 -9 0 -13 5 -10 10 3 6 8 10 10 10 2 0 7 -4 10 -10z m-47 -20 c12 -19 10
-20 -38 -20 -53 0 -57 3 -37 25 18 21 60 18 75 -5z m-373 1 c-3 -6 -14 -9 -25
-8 -24 2 -15 17 11 17 11 0 18 -4 14 -9z m579 3 c25 -10 19 -21 -13 -26 -26
-4 -29 -2 -20 14 11 20 11 20 33 12z m1066 -3 c0 -5 12 -11 28 -13 15 -2 -8
-3 -50 -3 -106 0 -103 14 5 23 9 1 17 -2 17 -7z m-970 -31 c-8 -5 -23 -10 -32
-10 -9 0 -19 -4 -23 -9 -3 -6 6 -6 25 -1 16 5 30 5 30 1 0 -5 -14 -11 -31 -15
-37 -7 -105 -6 -74 1 11 3 25 10 30 17 13 16 34 24 65 25 20 1 22 -1 10 -9z
m780 6 c0 -8 -61 -12 -66 -4 -3 4 11 8 30 8 20 0 36 -2 36 -4z m-135 -16 c-3
-5 -16 -10 -28 -9 -20 1 -20 2 3 9 14 4 26 8 28 9 2 1 0 -3 -3 -9z m292 -6
c-3 -3 -12 -4 -19 -1 -8 3 -5 6 6 6 11 1 17 -2 13 -5z m-424 -21 c-7 -2 -19
-2 -25 0 -7 3 -2 5 12 5 14 0 19 -2 13 -5z m374 1 c-3 -3 -12 -4 -19 -1 -8 3
-5 6 6 6 11 1 17 -2 13 -5z"/>
<path d="M3680 2430 c-13 -8 -12 -10 3 -10 9 0 17 5 17 10 0 12 -1 12 -20 0z"/>
<path d="M1068 2213 c7 -3 16 -2 19 1 4 3 -2 6 -13 5 -11 0 -14 -3 -6 -6z"/>
<path d="M3088 1853 c12 -2 32 -2 45 0 12 2 2 4 -23 4 -25 0 -35 -2 -22 -4z"/>
<path d="M2968 1843 c6 -2 18 -2 25 0 6 3 1 5 -13 5 -14 0 -19 -2 -12 -5z"/>
<path d="M3028 1843 c6 -2 18 -2 25 0 6 3 1 5 -13 5 -14 0 -19 -2 -12 -5z"/>
<path d="M2710 1830 c-8 -5 -10 -10 -5 -10 6 0 17 5 25 10 8 5 11 10 5 10 -5
0 -17 -5 -25 -10z"/>
<path d="M2385 1800 c3 -5 8 -10 11 -10 2 0 4 5 4 10 0 6 -5 10 -11 10 -5 0
-7 -4 -4 -10z"/>
<path d="M2418 1803 c7 -3 16 -2 19 1 4 3 -2 6 -13 5 -11 0 -14 -3 -6 -6z"/>
<path d="M2260 1790 c-12 -8 -11 -10 8 -10 12 0 22 5 22 10 0 13 -11 13 -30 0z"/>
<path d="M2325 1790 c3 -5 11 -10 16 -10 6 0 7 5 4 10 -3 6 -11 10 -16 10 -6
0 -7 -4 -4 -10z"/>
<path d="M2198 1785 c-3 -3 -55 -6 -116 -6 -61 0 -123 -4 -139 -8 -15 -5 34
-6 112 -4 77 3 146 9 155 13 8 5 10 10 4 10 -6 0 -13 -2 -16 -5z"/>
<path d="M1745 1761 c-33 -3 -55 -9 -48 -14 6 -4 28 -5 50 -3 21 3 65 8 98 11
33 3 61 8 64 11 5 5 -85 3 -164 -5z"/>
<path d="M3208 1743 c7 -3 16 -2 19 1 4 3 -2 6 -13 5 -11 0 -14 -3 -6 -6z"/>
<path d="M1578 1613 c-36 -9 -17 -23 30 -22 35 2 39 3 17 7 -26 4 -28 5 -10
12 l20 9 -20 -1 c-11 0 -28 -2 -37 -5z"/>
<path d="M1658 1613 c6 -2 18 -2 25 0 6 3 1 5 -13 5 -14 0 -19 -2 -12 -5z"/>
<path d="M3255 1690 c-3 -5 -16 -10 -27 -10 -27 0 -21 -5 14 -14 21 -5 26 -3
22 8 -3 8 2 16 13 19 15 4 16 5 1 6 -9 0 -20 -3 -23 -9z"/>
<path d="M1518 1528 c17 -8 26 -8 34 0 9 9 4 12 -22 11 -33 0 -34 -1 -12 -11z"/>
<path d="M2298 1523 c7 -3 16 -2 19 1 4 3 -2 6 -13 5 -11 0 -14 -3 -6 -6z"/>
<path d="M1848 1453 c7 -3 16 -2 19 1 4 3 -2 6 -13 5 -11 0 -14 -3 -6 -6z"/>
<path d="M3600 1564 c1 -25 23 -33 115 -40 55 -3 98 -4 95 -1 -3 2 -40 12 -82
21 -42 8 -88 18 -102 22 -14 3 -26 2 -26 -2z"/>
<path d="M3308 1333 c6 -2 18 -2 25 0 6 3 1 5 -13 5 -14 0 -19 -2 -12 -5z"/>
<path d="M3010 1301 c0 -5 7 -12 16 -15 24 -9 27 -7 10 9 -17 17 -26 19 -26 6z"/>
<path d="M2905 1289 c-14 -5 -1 -8 39 -8 33 -1 57 1 55 3 -10 9 -76 13 -94 5z"/>
<path d="M2848 1273 c6 -2 18 -2 25 0 6 3 1 5 -13 5 -14 0 -19 -2 -12 -5z"/>
<path d="M2298 1223 c7 -3 16 -2 19 1 4 3 -2 6 -13 5 -11 0 -14 -3 -6 -6z"/>
<path d="M1655 1160 c-4 -6 7 -10 27 -9 27 0 30 2 13 9 -27 12 -33 12 -40 0z"/>
<path d="M1593 1153 c-15 -5 -17 -23 -4 -23 5 0 11 7 15 15 3 8 4 15 3 14 -1
0 -8 -3 -14 -6z"/>
<path d="M3805 1260 c3 -5 15 -10 26 -10 11 0 17 5 14 10 -3 6 -15 10 -26 10
-11 0 -17 -4 -14 -10z"/>
<path d="M1960 1036 c0 -2 9 -6 20 -9 11 -3 20 -1 20 4 0 5 -9 9 -20 9 -11 0
-20 -2 -20 -4z"/>
<path d="M2058 1033 c7 -3 16 -2 19 1 4 3 -2 6 -13 5 -11 0 -14 -3 -6 -6z"/>
<path d="M3400 1120 c0 -5 6 -10 14 -10 8 0 18 5 21 10 3 6 -3 10 -14 10 -12
0 -21 -4 -21 -10z"/>
<path d="M2133 973 c9 -2 25 -2 35 0 9 3 1 5 -18 5 -19 0 -27 -2 -17 -5z"/>
<path d="M2120 950 c-18 -12 -2 -12 25 0 13 6 15 9 5 9 -8 0 -22 -4 -30 -9z"/>
<path d="M2236 951 c-4 -5 3 -7 14 -4 23 6 26 13 6 13 -8 0 -17 -4 -20 -9z"/>
<path d="M2308 953 c7 -3 16 -2 19 1 4 3 -2 6 -13 5 -11 0 -14 -3 -6 -6z"/>
<path d="M2033 943 c9 -2 25 -2 35 0 9 3 1 5 -18 5 -19 0 -27 -2 -17 -5z"/>
<path d="M1940 899 c0 -5 5 -7 10 -4 6 3 10 8 10 11 0 2 -4 4 -10 4 -5 0 -10
-5 -10 -11z"/>
<path d="M2490 3273 c0 -44 12 -103 20 -103 5 0 6 8 3 19 -4 17 2 19 82 20 48
1 114 -4 147 -10 44 -9 65 -9 84 0 14 6 31 8 37 4 18 -12 246 -18 256 -7 3 3
-1 9 -9 14 -11 7 -11 10 -2 10 7 0 15 -6 18 -13 3 -10 27 -14 80 -15 41 -1 73
2 70 6 -2 4 35 7 82 7 202 1 334 9 339 22 3 7 18 10 41 7 40 -5 75 3 67 16 -3
5 102 9 232 9 131 -1 441 3 688 7 248 5 558 7 690 5 481 -6 616 -7 621 -1 3 2
141 5 307 6 166 1 338 3 382 5 180 8 -761 14 -2447 17 l-1788 3 0 -28z m820
-13 c0 -5 -7 -10 -16 -10 -8 0 -12 5 -9 10 3 6 10 10 16 10 5 0 9 -4 9 -10z
m380 -20 c0 -6 -25 -9 -57 -8 l-58 1 55 7 c30 4 56 7 58 8 1 1 2 -2 2 -8z
m-217 -17 c-7 -2 -19 -2 -25 0 -7 3 -2 5 12 5 14 0 19 -2 13 -5z m-428 -13
c-3 -5 -12 -10 -20 -10 -8 0 -17 5 -20 10 -4 6 5 10 20 10 15 0 24 -4 20 -10z
m180 0 c3 -5 -1 -10 -9 -10 -8 0 -18 5 -21 10 -3 6 1 10 9 10 8 0 18 -4 21
-10z"/>
<path d="M6813 3284 c7 -7 138 -6 145 1 3 3 -30 5 -73 5 -43 0 -75 -3 -72 -6z"/>
<path d="M6993 3283 c9 -2 23 -2 30 0 6 3 -1 5 -18 5 -16 0 -22 -2 -12 -5z"/>
<path d="M7128 3283 c6 -2 18 -2 25 0 6 3 1 5 -13 5 -14 0 -19 -2 -12 -5z"/>
<path d="M7228 3283 c7 -3 16 -2 19 1 4 3 -2 6 -13 5 -11 0 -14 -3 -6 -6z"/>
<path d="M5698 3223 c7 -3 16 -2 19 1 4 3 -2 6 -13 5 -11 0 -14 -3 -6 -6z"/>
<path d="M6400 3221 c-14 -4 -20 -10 -14 -14 6 -3 20 0 30 8 21 16 20 16 -16
6z"/>
<path d="M5893 3205 c0 -8 5 -15 11 -15 6 0 21 -3 34 -6 13 -4 22 -2 22 5 0 6
-9 11 -21 11 -11 0 -17 5 -14 10 3 6 -2 10 -13 10 -10 0 -19 -7 -19 -15z"/>
<path d="M5988 3213 c12 -2 32 -2 45 0 12 2 2 4 -23 4 -25 0 -35 -2 -22 -4z"/>
<path d="M6105 3210 c-3 -5 1 -10 9 -10 9 0 16 5 16 10 0 6 -4 10 -9 10 -6 0
-13 -4 -16 -10z"/>
<path d="M6147 3199 c-3 -13 5 -14 52 -11 31 2 89 -1 129 -5 45 -6 72 -6 72 0
0 6 16 7 38 3 59 -11 153 -14 181 -6 16 5 19 9 9 9 -21 1 -24 17 -5 24 6 3 1
6 -14 6 -14 1 -29 -3 -35 -8 -5 -6 -31 -10 -59 -10 -27 0 -62 0 -77 0 -61 -1
-74 -1 -110 0 -21 1 -38 5 -38 8 0 4 -31 7 -69 7 -54 -1 -71 -4 -74 -17z"/>
<path d="M6468 3213 c6 -2 18 -2 25 0 6 3 1 5 -13 5 -14 0 -19 -2 -12 -5z"/>
<path d="M6640 3210 c0 -5 6 -10 14 -10 8 0 16 -7 20 -15 3 -8 13 -15 23 -16
12 -1 10 -3 -7 -9 -21 -7 -19 -8 17 -9 23 -1 44 -7 46 -13 4 -10 6 -10 6 0 1
6 10 12 22 12 13 0 18 -4 13 -12 -6 -9 -3 -9 9 0 9 8 25 11 37 7 11 -4 20 -2
20 4 0 7 -27 11 -70 11 -53 0 -70 3 -70 14 0 11 8 12 42 3 31 -8 43 -7 46 1 4
14 32 16 32 3 0 -5 9 -11 20 -14 16 -4 20 0 20 19 0 25 -15 33 -23 12 -4 -10
-8 -10 -15 1 -8 12 -13 12 -25 2 -11 -9 -17 -9 -22 -1 -5 7 -25 9 -60 5 -34
-5 -55 -3 -59 4 -9 14 -36 15 -36 1z m143 -17 c-7 -2 -21 -2 -30 0 -10 3 -4 5
12 5 17 0 24 -2 18 -5z"/>
<path d="M6899 3208 c0 -7 -2 -21 -4 -30 -2 -11 3 -18 13 -19 35 -3 78 -8 99
-14 12 -3 25 -1 28 5 3 6 30 8 58 6 29 -2 41 -1 28 1 -19 4 -22 7 -10 14 9 6
0 7 -26 2 -55 -10 -98 -8 -103 6 -5 14 -42 15 -42 1 0 -5 -4 -10 -10 -10 -5 0
-10 9 -10 20 0 22 15 25 69 14 17 -4 31 -13 31 -20 0 -11 7 -13 28 -8 35 9 41
14 14 14 -13 0 -22 6 -22 15 0 12 -14 15 -70 15 -49 0 -70 -4 -71 -12z"/>
<path d="M7050 3216 c0 -2 9 -6 20 -9 11 -3 18 -1 14 4 -5 9 -34 13 -34 5z"/>
<path d="M5425 3200 c-16 -7 -17 -9 -3 -9 9 -1 20 4 23 9 7 11 7 11 -20 0z"/>
<path d="M5770 3200 c-11 -7 1 -9 40 -9 42 1 49 3 30 9 -35 11 -53 11 -70 0z"/>
<path d="M6052 3201 c-10 -6 -7 -10 12 -13 18 -4 26 -1 26 8 0 16 -18 18 -38
5z"/>
<path d="M7348 3203 c7 -3 16 -2 19 1 4 3 -2 6 -13 5 -11 0 -14 -3 -6 -6z"/>
<path d="M7528 3199 c-2 -6 -24 -13 -48 -14 -25 -2 -65 -4 -90 -7 -25 -2 -55
1 -66 7 -18 9 -94 11 -181 6 -28 -2 -11 -21 18 -21 16 0 28 -4 25 -9 -10 -16
18 -18 41 -3 17 11 35 12 70 7 58 -10 133 -12 133 -5 0 3 9 6 20 7 11 1 20 -2
20 -7 0 -5 13 -5 30 0 18 5 32 5 35 -1 8 -12 87 -12 119 1 18 6 26 6 26 -1 0
-6 6 -7 12 -2 19 11 101 12 116 0 8 -6 12 -6 12 2 0 9 5 9 20 1 15 -8 20 -8
20 2 0 10 2 10 8 1 5 -8 12 -8 26 3 20 14 20 14 0 28 -10 8 -21 10 -24 6 -3
-5 -12 -5 -20 0 -24 15 -34 11 -19 -7 13 -15 11 -15 -26 -8 -52 10 -182 10
-217 0 -22 -6 -28 -4 -28 9 0 18 -26 22 -32 5z m49 -35 c-3 -3 -12 -4 -19 -1
-8 3 -5 6 6 6 11 1 17 -2 13 -5z"/>
<path d="M5985 3190 c3 -5 15 -10 26 -10 10 0 19 5 19 10 0 6 -12 10 -26 10
-14 0 -23 -4 -19 -10z"/>
<path d="M5810 3170 c-12 -7 -10 -9 8 -7 12 0 22 5 22 9 0 11 -12 10 -30 -2z"/>
<path d="M5868 3173 c7 -3 16 -2 19 1 4 3 -2 6 -13 5 -11 0 -14 -3 -6 -6z"/>
<path d="M6130 3160 c0 -5 7 -10 16 -10 8 0 12 5 9 10 -3 6 -10 10 -16 10 -5
0 -9 -4 -9 -10z"/>
<path d="M6470 3160 c17 -11 57 -14 47 -3 -4 3 -19 8 -34 9 -21 2 -24 1 -13
-6z"/>
<path d="M6580 3150 c-12 -8 -11 -10 5 -9 11 1 31 5 45 9 24 8 24 8 -5 9 -16
0 -37 -4 -45 -9z"/>
<path d="M6538 3143 c7 -3 16 -2 19 1 4 3 -2 6 -13 5 -11 0 -14 -3 -6 -6z"/>
<path d="M4230 3020 c-11 -7 -5 -10 23 -10 23 0 36 4 32 10 -8 13 -35 13 -55
0z"/>
<path d="M6346 2921 c-4 -5 -2 -12 3 -15 5 -4 12 -2 15 3 4 5 2 12 -3 15 -5 4
-12 2 -15 -3z"/>
<path d="M5250 2916 c0 -2 11 -6 25 -8 13 -3 22 -1 19 3 -5 9 -44 13 -44 5z"/>
<path d="M6425 2910 c4 -6 11 -8 16 -5 14 9 11 15 -7 15 -8 0 -12 -5 -9 -10z"/>
<path d="M1975 2819 c-4 -5 24 -9 66 -9 40 0 70 2 68 4 -10 9 -129 14 -134 5z"/>
<path d="M2258 2803 c12 -2 32 -2 45 0 12 2 2 4 -23 4 -25 0 -35 -2 -22 -4z"/>
<path d="M2168 2793 c7 -3 16 -2 19 1 4 3 -2 6 -13 5 -11 0 -14 -3 -6 -6z"/>
<path d="M2170 2780 l-75 -6 85 -1 c47 -1 96 3 110 7 22 7 21 8 -10 7 -19 0
-69 -3 -110 -7z"/>
<path d="M1835 2770 c-44 -5 -46 -7 -20 -11 l30 -6 -28 -2 c-16 0 -26 -5 -22
-11 4 -6 11 -8 16 -5 5 4 60 6 122 7 83 0 104 3 82 9 -16 5 -61 7 -100 5 -50
-3 -58 -3 -28 3 24 4 46 10 49 14 8 8 -27 7 -101 -3z"/>
<path d="M2025 2773 c11 -3 24 -9 30 -14 5 -5 32 -8 60 -8 l50 2 -50 8 c-76
12 -112 17 -90 12z"/>
<path d="M5540 2753 c0 -12 5 -25 10 -28 13 -8 13 15 0 35 -8 12 -10 11 -10
-7z"/>
<path d="M2328 2723 c7 -3 16 -2 19 1 4 3 -2 6 -13 5 -11 0 -14 -3 -6 -6z"/>
<path d="M1820 2711 c0 -6 39 -8 95 -4 65 3 95 1 95 -6 0 -6 7 -11 15 -11 9 0
12 6 9 15 -5 12 -27 15 -110 15 -58 0 -104 -4 -104 -9z"/>
<path d="M2125 2700 c-3 -5 1 -10 9 -10 8 0 18 5 21 10 3 6 -1 10 -9 10 -8 0
-18 -4 -21 -10z"/>
<path d="M2175 2680 c-28 -8 -28 -8 10 -7 22 0 51 -5 63 -12 13 -7 26 -10 29
-7 4 4 -66 39 -71 35 0 -1 -14 -5 -31 -9z"/>
<path d="M2594 2674 c3 -9 6 -18 6 -20 0 -2 7 -4 15 -4 13 0 14 4 5 20 -13 24
-35 27 -26 4z"/>
<path d="M2063 2663 c9 -2 25 -2 35 0 9 3 1 5 -18 5 -19 0 -27 -2 -17 -5z"/>
<path d="M2138 2653 c6 -2 18 -2 25 0 6 3 1 5 -13 5 -14 0 -19 -2 -12 -5z"/>
<path d="M1958 2615 c-3 -3 -68 -7 -144 -8 -133 -2 -139 -3 -136 -22 1 -11 4
-36 5 -55 l2 -35 50 3 c153 7 245 15 245 21 0 3 -42 5 -92 4 -61 -1 -84 1 -68
7 23 7 24 8 3 9 -36 2 -36 19 -1 24 21 3 15 4 -17 4 -141 0 -63 19 109 28 49
2 94 9 100 15 7 7 1 10 -20 10 -17 0 -33 -2 -36 -5z m-221 -101 c-3 -3 -12 -4
-19 -1 -8 3 -5 6 6 6 11 1 17 -2 13 -5z"/>
<path d="M2120 2610 c8 -5 20 -10 25 -10 6 0 3 5 -5 10 -8 5 -19 10 -25 10 -5
0 -3 -5 5 -10z"/>
<path d="M2085 2600 c-3 -5 -1 -10 4 -10 6 0 11 5 11 10 0 6 -2 10 -4 10 -3 0
-8 -4 -11 -10z"/>
<path d="M2038 2593 c6 -2 18 -2 25 0 6 3 1 5 -13 5 -14 0 -19 -2 -12 -5z"/>
<path d="M2168 2573 c7 -3 16 -2 19 1 4 3 -2 6 -13 5 -11 0 -14 -3 -6 -6z"/>
<path d="M2088 2563 c7 -3 16 -2 19 1 4 3 -2 6 -13 5 -11 0 -14 -3 -6 -6z"/>
<path d="M1273 2533 c9 -2 23 -2 30 0 6 3 -1 5 -18 5 -16 0 -22 -2 -12 -5z"/>
<path d="M1873 2533 c9 -2 25 -2 35 0 9 3 1 5 -18 5 -19 0 -27 -2 -17 -5z"/>
<path d="M2033 2523 c9 -2 25 -2 35 0 9 3 1 5 -18 5 -19 0 -27 -2 -17 -5z"/>
<path d="M2674 2515 c4 -12 -6 -15 -57 -16 -34 0 -100 -7 -147 -15 l-85 -13
140 5 c76 3 144 8 150 12 5 3 21 5 35 4 l25 -2 -23 13 c-12 7 -19 16 -16 20 4
4 -1 7 -10 7 -12 0 -16 -5 -12 -15z"/>
<path d="M2496 2511 c5 -5 37 -6 74 -1 l65 7 -74 2 c-45 0 -71 -3 -65 -8z"/>
<path d="M2180 2499 c-53 -5 -45 -6 45 -6 61 0 142 3 180 7 63 7 58 7 -45 6
-63 0 -144 -4 -180 -7z"/>
<path d="M2045 2490 c-30 -8 -30 -8 8 -9 23 -1 36 3 32 9 -3 6 -7 9 -8 9 -1
-1 -15 -5 -32 -9z"/>
<path d="M1808 2483 c6 -2 18 -2 25 0 6 3 1 5 -13 5 -14 0 -19 -2 -12 -5z"/>
<path d="M1017 2469 c8 -8 16 -8 30 0 16 9 14 10 -11 11 -22 0 -27 -3 -19 -11z"/>
<path d="M2718 2473 c-10 -2 -18 -13 -18 -24 0 -16 -7 -19 -52 -19 -29 -1 -64
-7 -78 -15 -25 -14 -25 -14 -2 -15 12 0 22 5 22 10 0 6 7 10 15 10 8 0 15 -4
15 -10 0 -5 7 -10 16 -10 8 0 12 5 9 10 -3 6 5 10 19 10 22 0 44 -16 35 -25
-2 -1 -42 -6 -88 -9 -46 -3 -86 -8 -90 -12 -3 -3 36 -3 87 0 l92 7 0 -24 c0
-27 -16 -30 -222 -44 -54 -3 -98 -9 -98 -12 0 -3 84 -5 187 -4 104 1 175 -2
158 -6 -45 -10 -7 -22 53 -16 l47 4 -40 -9 c-22 -5 -75 -9 -118 -9 -50 -1 -76
-5 -72 -11 4 -6 11 -8 16 -4 6 3 17 -2 25 -12 14 -17 15 -17 10 -1 -4 12 0 17
14 17 11 0 20 -4 20 -10 0 -5 9 -10 21 -10 11 0 17 5 14 10 -3 6 3 10 13 10
11 0 22 -7 26 -15 3 -9 12 -12 21 -8 14 5 14 8 3 15 -9 7 -5 8 12 3 14 -3 41
-8 60 -11 l35 -5 -25 16 c-14 9 -18 14 -9 11 9 -2 36 1 60 9 33 10 40 15 27
20 -10 4 -15 11 -12 16 3 5 -4 9 -16 9 -12 0 -19 4 -16 9 7 10 -17 21 -42 21
-12 -1 -10 -5 8 -15 24 -14 23 -14 -20 -11 l-45 4 0 66 c0 45 4 69 13 75 27
16 -41 27 -90 14z m162 -187 c0 -9 -40 -13 -46 -5 -3 5 6 9 20 9 14 0 26 -2
26 -4z"/>
<path d="M1868 2463 c12 -2 30 -2 40 0 9 3 -1 5 -23 4 -22 0 -30 -2 -17 -4z"/>
<path d="M2165 2460 c-6 -9 193 -3 204 6 2 2 -41 4 -97 4 -57 0 -104 -4 -107
-10z"/>
<path d="M1970 2450 l-45 -7 55 -1 c30 0 80 3 110 8 l55 7 -65 0 c-36 0 -85
-3 -110 -7z"/>
<path d="M3325 2435 c-25 -12 -26 -14 -5 -9 28 7 60 23 45 23 -5 0 -23 -6 -40
-14z"/>
<path d="M2158 2433 c6 -2 18 -2 25 0 6 3 1 5 -13 5 -14 0 -19 -2 -12 -5z"/>
<path d="M2488 2433 c12 -2 30 -2 40 0 9 3 -1 5 -23 4 -22 0 -30 -2 -17 -4z"/>
<path d="M1778 2423 c7 -3 16 -2 19 1 4 3 -2 6 -13 5 -11 0 -14 -3 -6 -6z"/>
<path d="M2268 2423 c17 -2 47 -2 65 0 17 2 3 4 -33 4 -36 0 -50 -2 -32 -4z"/>
<path d="M2098 2413 c7 -3 16 -2 19 1 4 3 -2 6 -13 5 -11 0 -14 -3 -6 -6z"/>
<path d="M2163 2413 c9 -2 23 -2 30 0 6 3 -1 5 -18 5 -16 0 -22 -2 -12 -5z"/>
<path d="M2318 2403 c7 -3 16 -2 19 1 4 3 -2 6 -13 5 -11 0 -14 -3 -6 -6z"/>
<path d="M2383 2403 c9 -2 23 -2 30 0 6 3 -1 5 -18 5 -16 0 -22 -2 -12 -5z"/>
<path d="M3258 2403 c7 -3 16 -2 19 1 4 3 -2 6 -13 5 -11 0 -14 -3 -6 -6z"/>
<path d="M2170 2390 c8 -5 26 -9 40 -9 l25 1 -25 8 c-14 4 -32 8 -40 9 -13 1
-13 0 0 -9z"/>
<path d="M2820 2380 c0 -15 7 -20 26 -20 27 0 24 20 -4 21 -14 0 -13 2 3 9 19
8 19 9 -2 9 -17 1 -23 -5 -23 -19z"/>
<path d="M1148 2383 c7 -3 16 -2 19 1 4 3 -2 6 -13 5 -11 0 -14 -3 -6 -6z"/>
<path d="M2278 2383 c7 -3 16 -2 19 1 4 3 -2 6 -13 5 -11 0 -14 -3 -6 -6z"/>
<path d="M3098 2383 c12 -2 30 -2 40 0 9 3 -1 5 -23 4 -22 0 -30 -2 -17 -4z"/>
<path d="M1940 2371 c0 -8 171 -4 195 4 6 2 -36 4 -92 4 -57 1 -103 -3 -103
-8z"/>
<path d="M2340 2370 l-45 -7 55 -1 c30 -1 62 3 70 8 18 11 -7 11 -80 0z"/>
<path d="M2463 2373 c9 -2 25 -2 35 0 9 3 1 5 -18 5 -19 0 -27 -2 -17 -5z"/>
<path d="M1090 2360 c-33 -7 -32 -7 15 -9 28 0 57 4 65 9 18 12 -25 12 -80 0z"/>
<path d="M2590 2361 c-65 -5 -70 -7 -35 -12 50 -7 135 1 135 12 0 5 -6 8 -12
7 -7 -1 -47 -4 -88 -7z"/>
<path d="M2000 2351 c0 -9 218 -6 227 3 2 2 -48 4 -111 5 -72 1 -116 -2 -116
-8z"/>
<path d="M1805 2339 c-23 -4 7 -5 70 -2 61 3 112 7 114 9 8 7 -143 1 -184 -7z"/>
<path d="M2335 2340 c3 -5 8 -10 11 -10 2 0 4 5 4 10 0 6 -5 10 -11 10 -5 0
-7 -4 -4 -10z"/>
<path d="M2413 2343 c9 -2 25 -2 35 0 9 3 1 5 -18 5 -19 0 -27 -2 -17 -5z"/>
<path d="M984 2331 c5 -8 56 -3 56 5 0 2 -14 4 -31 4 -16 0 -28 -4 -25 -9z"/>
<path d="M1950 2301 c0 -8 119 -3 129 5 2 2 -26 4 -62 4 -37 0 -67 -4 -67 -9z"/>
<path d="M2145 2290 c-43 -6 -37 -7 40 -8 50 0 110 3 135 7 39 7 33 8 -40 8
-47 0 -107 -3 -135 -7z"/>
<path d="M2040 2280 c0 -12 8 -12 35 0 18 8 17 9 -7 9 -16 1 -28 -3 -28 -9z"/>
<path d="M2566 2278 c5 -8 114 -1 124 8 2 3 -25 4 -62 3 -36 -2 -64 -7 -62
-11z"/>
<path d="M1920 2271 c0 -6 17 -7 38 -4 51 8 53 13 4 13 -23 0 -42 -4 -42 -9z"/>
<path d="M2333 2273 c-26 -10 -12 -19 25 -15 30 4 33 6 17 13 -23 9 -26 9 -42
2z"/>
<path d="M2518 2273 c7 -3 16 -2 19 1 4 3 -2 6 -13 5 -11 0 -14 -3 -6 -6z"/>
<path d="M2255 2260 c-18 -8 -17 -9 7 -9 15 -1 30 4 33 9 7 12 -12 12 -40 0z"/>
<path d="M2040 2250 c-45 -7 -45 -7 15 -8 33 0 69 3 80 8 16 7 13 8 -15 8 -19
-1 -55 -4 -80 -8z"/>
<path d="M2183 2253 c9 -2 23 -2 30 0 6 3 -1 5 -18 5 -16 0 -22 -2 -12 -5z"/>
<path d="M1813 2243 c-7 -2 -13 -8 -13 -12 0 -7 180 6 188 14 7 7 -159 5 -175
-2z"/>
<path d="M2375 2239 c-15 -6 -11 -8 18 -8 20 -1 37 1 37 3 0 9 -37 12 -55 5z"/>
<path d="M2900 2240 c-18 -12 -2 -12 25 0 13 6 15 9 5 9 -8 0 -22 -4 -30 -9z"/>
<path d="M2288 2233 c12 -2 32 -2 45 0 12 2 2 4 -23 4 -25 0 -35 -2 -22 -4z"/>
<path d="M2040 2220 c0 -11 107 -6 118 4 3 3 -22 6 -56 6 -36 0 -62 -4 -62
-10z"/>
<path d="M2183 2223 c9 -2 23 -2 30 0 6 3 -1 5 -18 5 -16 0 -22 -2 -12 -5z"/>
<path d="M2458 2223 c7 -3 16 -2 19 1 4 3 -2 6 -13 5 -11 0 -14 -3 -6 -6z"/>
<path d="M2548 2223 c7 -3 16 -2 19 1 4 3 -2 6 -13 5 -11 0 -14 -3 -6 -6z"/>
<path d="M2910 2222 c-56 -4 -78 -22 -29 -23 18 -1 26 -3 17 -6 -24 -6 -23
-23 2 -23 11 0 20 5 20 10 0 6 7 10 16 10 8 0 12 -5 9 -11 -5 -7 10 -9 44 -7
63 4 62 23 -2 23 -48 1 -80 14 -36 16 13 0 33 4 44 9 21 10 25 10 -85 2z"/>
<path d="M2345 2210 c3 -5 11 -10 16 -10 6 0 7 5 4 10 -3 6 -11 10 -16 10 -6
0 -7 -4 -4 -10z"/>
<path d="M1713 2179 c-13 -6 -10 -8 14 -8 17 -1 34 3 37 7 6 10 -27 10 -51 1z"/>
<path d="M1825 2180 c-45 -8 -38 -13 15 -10 19 1 39 6 45 11 10 10 1 10 -60
-1z"/>
<path d="M1635 2170 c28 -12 45 -12 45 0 0 6 -15 10 -32 9 -28 0 -30 -2 -13
-9z"/>
<path d="M2755 2170 c-18 -8 -17 -9 8 -9 16 -1 26 3 22 9 -3 6 -7 10 -8 9 -1
0 -11 -4 -22 -9z"/>
<path d="M2032 2133 c-82 -6 -53 -18 34 -15 51 3 73 7 63 13 -8 5 -21 8 -29 7
-8 -1 -39 -3 -68 -5z"/>
<path d="M2168 2133 c7 -3 16 -2 19 1 4 3 -2 6 -13 5 -11 0 -14 -3 -6 -6z"/>
<path d="M1828 2123 c-21 -2 -39 -11 -42 -20 -5 -11 -2 -13 11 -8 10 4 48 10
86 12 37 3 70 10 73 14 5 9 -55 9 -128 2z"/>
<path d="M2920 2099 c-31 -6 -30 -6 18 -8 28 0 52 1 52 3 0 8 -37 11 -70 5z"/>
<path d="M2628 2093 c7 -3 16 -2 19 1 4 3 -2 6 -13 5 -11 0 -14 -3 -6 -6z"/>
<path d="M3340 2080 c-13 -8 -12 -10 3 -10 9 0 17 5 17 10 0 12 -1 12 -20 0z"/>
<path d="M3070 2064 l-45 -12 42 -1 c23 -1 45 4 48 10 10 16 4 16 -45 3z"/>
<path d="M3575 2070 c-3 -5 -1 -10 4 -10 6 0 11 5 11 10 0 6 -2 10 -4 10 -3 0
-8 -4 -11 -10z"/>
<path d="M1850 2030 c-9 -6 -10 -10 -3 -10 6 0 15 5 18 10 8 12 4 12 -15 0z"/>
<path d="M2768 2033 c7 -3 16 -2 19 1 4 3 -2 6 -13 5 -11 0 -14 -3 -6 -6z"/>
<path d="M2626 2022 c-3 -5 18 -7 47 -5 75 6 81 11 15 12 -31 1 -59 -3 -62 -7z"/>
<path d="M2528 2013 c7 -3 16 -2 19 1 4 3 -2 6 -13 5 -11 0 -14 -3 -6 -6z"/>
<path d="M2588 2013 c7 -3 16 -2 19 1 4 3 -2 6 -13 5 -11 0 -14 -3 -6 -6z"/>
<path d="M2280 1980 c-54 -8 -22 -18 35 -11 37 5 43 8 25 12 -14 2 -41 2 -60
-1z"/>
<path d="M3095 1980 c-3 -5 -2 -10 4 -10 5 0 13 5 16 10 3 6 2 10 -4 10 -5 0
-13 -4 -16 -10z"/>
<path d="M2100 1965 c-52 -5 -81 -11 -65 -12 44 -5 215 12 185 17 -14 3 -68 1
-120 -5z"/>
<path d="M2940 1960 c-23 -7 -23 -8 -3 -9 12 -1 25 4 28 9 3 6 5 10 3 9 -2 -1
-14 -5 -28 -9z"/>
<path d="M2840 1920 c-18 -12 39 -12 85 0 26 7 24 8 -20 9 -27 0 -57 -4 -65
-9z"/>
<path d="M2695 1909 c-28 -6 -27 -7 10 -7 22 -1 58 3 80 8 l40 8 -50 -1 c-27
-1 -63 -5 -80 -8z"/>
<path d="M3080 1910 c0 -5 4 -10 9 -10 6 0 13 5 16 10 3 6 -1 10 -9 10 -9 0
-16 -4 -16 -10z"/>
<path d="M3038 1903 c7 -3 16 -2 19 1 4 3 -2 6 -13 5 -11 0 -14 -3 -6 -6z"/>
<path d="M2501 1891 c-9 -6 9 -7 50 -4 35 3 66 7 68 9 10 9 -105 3 -118 -5z"/>
<path d="M2448 1883 c6 -2 18 -2 25 0 6 3 1 5 -13 5 -14 0 -19 -2 -12 -5z"/>
<path d="M1703 1863 c9 -2 25 -2 35 0 9 3 1 5 -18 5 -19 0 -27 -2 -17 -5z"/>
<path d="M126 1659 c5 -8 -1 -10 -20 -7 -25 5 -26 4 -12 -10 12 -13 18 -13 30
-2 18 14 21 30 5 30 -5 0 -7 -5 -3 -11z"/>
<path d="M30 1550 c0 -5 4 -10 9 -10 6 0 13 5 16 10 3 6 -1 10 -9 10 -9 0 -16
-4 -16 -10z"/>
<path d="M7798 1343 c7 -3 16 -2 19 1 4 3 -2 6 -13 5 -11 0 -14 -3 -6 -6z"/>
<path d="M7688 1073 c7 -3 16 -2 19 1 4 3 -2 6 -13 5 -11 0 -14 -3 -6 -6z"/>
<path d="M7738 1043 c7 -3 16 -2 19 1 4 3 -2 6 -13 5 -11 0 -14 -3 -6 -6z"/>
<path d="M7823 1028 c26 -6 47 -15 47 -20 0 -5 -4 -6 -10 -3 -5 3 -10 2 -10
-3 0 -6 7 -12 15 -16 8 -3 15 -1 15 4 0 6 7 10 15 10 8 0 15 5 15 11 0 6 -6 9
-14 6 -7 -3 -17 -2 -22 3 -5 4 -29 10 -54 13 l-45 6 48 -11z"/>
<path d="M3988 1023 c6 -2 18 -2 25 0 6 3 1 5 -13 5 -14 0 -19 -2 -12 -5z"/>
<path d="M3900 990 c-12 -8 -10 -10 10 -10 14 0 32 5 40 10 12 8 10 10 -10 10
-14 0 -32 -5 -40 -10z"/>
<path d="M3830 970 c-18 -6 -9 -8 34 -9 33 -1 57 1 55 3 -10 9 -67 12 -89 6z"/>
<path d="M3948 963 c7 -3 16 -2 19 1 4 3 -2 6 -13 5 -11 0 -14 -3 -6 -6z"/>
<path d="M3578 943 c6 -2 18 -2 25 0 6 3 1 5 -13 5 -14 0 -19 -2 -12 -5z"/>
<path d="M3528 933 c6 -2 18 -2 25 0 6 3 1 5 -13 5 -14 0 -19 -2 -12 -5z"/>
<path d="M7831 927 c9 -7 18 -21 20 -32 2 -10 16 -22 32 -26 23 -6 27 -4 27
14 0 13 -3 17 -8 11 -4 -6 -15 -11 -24 -11 -13 0 -18 8 -18 29 0 22 -4 28 -22
28 -21 -1 -21 -2 -7 -13z"/>
<path d="M2945 910 c3 -5 11 -10 16 -10 6 0 7 5 4 10 -3 6 -11 10 -16 10 -6 0
-7 -4 -4 -10z"/>
<path d="M3315 910 c-8 -13 35 -13 55 0 11 7 7 10 -17 10 -17 0 -35 -4 -38
-10z"/>
<path d="M7772 905 c10 -11 68 -23 68 -15 0 4 -10 10 -22 14 -29 7 -53 8 -46
1z"/>
<path d="M7708 873 c6 -2 18 -2 25 0 6 3 1 5 -13 5 -14 0 -19 -2 -12 -5z"/>
<path d="M2945 860 c-27 -7 -26 -8 15 -8 25 0 54 3 65 8 16 7 13 9 -15 8 -19
0 -48 -4 -65 -8z"/>
<path d="M7770 860 c8 -5 20 -10 25 -10 6 0 3 5 -5 10 -8 5 -19 10 -25 10 -5
0 -3 -5 5 -10z"/>
<path d="M2320 839 c0 -5 5 -7 10 -4 6 3 10 8 10 11 0 2 -4 4 -10 4 -5 0 -10
-5 -10 -11z"/>
<path d="M3790 828 c0 -3 -8 -9 -17 -11 -10 -3 2 -5 27 -5 68 -1 97 14 38 19
-27 2 -48 1 -48 -3z"/>
<path d="M7715 820 c4 -6 11 -8 16 -5 14 9 11 15 -7 15 -8 0 -12 -5 -9 -10z"/>
<path d="M2018 803 c7 -3 16 -2 19 1 4 3 -2 6 -13 5 -11 0 -14 -3 -6 -6z"/>
<path d="M2570 806 c0 -9 37 -12 55 -5 15 6 11 8 -17 8 -21 1 -38 -1 -38 -3z"/>
<path d="M3545 799 c4 -5 18 -9 32 -9 32 0 23 12 -12 16 -14 1 -23 -2 -20 -7z"/>
<path d="M3618 803 c7 -3 16 -2 19 1 4 3 -2 6 -13 5 -11 0 -14 -3 -6 -6z"/>
<path d="M3673 803 c9 -2 25 -2 35 0 9 3 1 5 -18 5 -19 0 -27 -2 -17 -5z"/>
<path d="M3450 780 c-34 -7 -34 -7 -5 -8 17 0 41 4 55 8 33 11 0 11 -50 0z"/>
<path d="M7798 763 c7 -3 16 -2 19 1 4 3 -2 6 -13 5 -11 0 -14 -3 -6 -6z"/>
<path d="M7895 761 c-3 -5 -1 -12 5 -16 5 -3 10 1 10 9 0 18 -6 21 -15 7z"/>
<path d="M2208 753 c7 -3 16 -2 19 1 4 3 -2 6 -13 5 -11 0 -14 -3 -6 -6z"/>
<path d="M2865 750 c-3 -5 1 -10 9 -10 9 0 16 5 16 10 0 6 -4 10 -9 10 -6 0
-13 -4 -16 -10z"/>
<path d="M3270 750 c20 -13 53 -13 45 0 -3 6 -18 10 -33 10 -21 0 -24 -2 -12
-10z"/>
<path d="M7851 744 c0 -11 3 -14 6 -6 3 7 2 16 -1 19 -3 4 -6 -2 -5 -13z"/>
<path d="M3148 743 c12 -2 30 -2 40 0 9 3 -1 5 -23 4 -22 0 -30 -2 -17 -4z"/>
<path d="M2818 733 c6 -2 18 -2 25 0 6 3 1 5 -13 5 -14 0 -19 -2 -12 -5z"/>
<path d="M3088 733 c6 -2 18 -2 25 0 6 3 1 5 -13 5 -14 0 -19 -2 -12 -5z"/>
<path d="M2058 723 c7 -3 16 -2 19 1 4 3 -2 6 -13 5 -11 0 -14 -3 -6 -6z"/>
<path d="M7900 728 c-5 -30 -3 -128 3 -128 4 0 7 29 7 65 0 36 -2 65 -5 65 -3
0 -5 -1 -5 -2z"/>
<path d="M2795 710 c6 -10 -14 -12 -105 -13 -42 0 -42 0 -7 -4 20 -2 37 -8 37
-13 0 -4 -18 -6 -40 -3 -33 5 -40 3 -40 -11 0 -9 -5 -16 -12 -16 -9 0 -9 -3 0
-12 10 -10 17 -10 32 0 11 6 33 12 49 12 16 0 37 3 47 7 16 6 16 7 -2 15 -13
6 -5 7 24 4 27 -3 40 0 36 6 -4 7 5 8 25 3 20 -4 31 -3 31 5 0 6 5 8 10 5 6
-3 10 1 10 9 0 13 -4 14 -25 4 -19 -8 -31 -8 -51 0 -14 7 -23 8 -19 2z"/>
<path d="M2515 699 c12 -18 49 -27 64 -15 11 9 13 8 9 -4 -3 -9 -16 -14 -34
-13 -16 1 -21 -1 -11 -4 19 -5 24 -23 5 -23 -6 0 -9 -2 -6 -5 14 -14 60 10 74
38 l16 30 -51 -6 c-30 -4 -51 -2 -51 3 0 6 -5 10 -11 10 -5 0 -7 -5 -4 -11z"/>
<path d="M2968 693 c-29 -7 -21 -18 15 -20 25 -1 28 0 12 7 -19 7 -18 8 5 12
17 4 19 5 5 5 -11 1 -28 -1 -37 -4z"/>
<path d="M3775 690 c3 -5 11 -10 16 -10 6 0 7 5 4 10 -3 6 -11 10 -16 10 -6 0
-7 -4 -4 -10z"/>
<path d="M7725 692 c11 -2 23 -9 27 -16 6 -8 8 -8 8 1 0 6 8 13 18 15 9 3 -3
5 -28 5 -25 0 -36 -2 -25 -5z"/>
<path d="M7850 681 c0 -17 -5 -19 -37 -14 -21 3 -35 2 -31 -2 15 -15 -13 -45
-41 -45 -29 0 -50 -25 -28 -34 7 -2 -4 -5 -23 -5 l-35 -1 29 -15 c37 -20 55
-13 49 17 -3 18 0 24 16 25 13 1 18 -3 15 -12 -3 -7 0 -16 5 -20 6 -3 9 -11 6
-16 -4 -5 -2 -9 4 -9 5 0 12 4 15 9 3 5 15 7 26 4 11 -3 20 0 20 6 0 6 -9 11
-20 11 -11 0 -20 5 -20 11 0 6 10 9 23 7 32 -4 37 -55 6 -60 -12 -2 -23 -11
-25 -20 -2 -18 25 -14 38 6 4 6 8 -5 8 -24 0 -23 -3 -30 -9 -22 -12 20 -57 11
-53 -10 2 -10 -2 -18 -8 -18 -6 0 -9 -4 -6 -9 12 -19 -27 -20 -51 -1 l-26 20
26 0 c14 0 28 4 31 9 9 14 -22 21 -49 11 -25 -10 -33 -2 -16 16 6 5 4 16 -5
28 -14 19 -14 19 -14 -1 0 -12 -5 -23 -12 -25 -15 -5 20 -47 50 -59 25 -10 30
-29 6 -29 -8 0 -12 -5 -8 -11 3 -6 17 -8 32 -4 22 5 24 4 13 -9 -8 -9 -9 -16
-4 -16 4 0 32 -15 60 -34 28 -19 54 -31 57 -28 3 3 6 -4 6 -16 0 -12 6 -22 14
-22 8 0 17 -6 19 -12 3 -7 6 60 6 150 1 170 1 170 -41 163 -14 -2 -9 117 5
122 7 3 5 6 -5 6 -11 1 -18 -6 -18 -18z m17 -188 c-2 -16 -4 -5 -4 22 0 28 2
40 4 28 2 -13 2 -35 0 -50z m33 57 c0 -5 -5 -10 -11 -10 -5 0 -7 5 -4 10 3 6
8 10 11 10 2 0 4 -4 4 -10z m0 -30 c0 -5 -4 -10 -10 -10 -5 0 -10 5 -10 10 0
6 5 10 10 10 6 0 10 -4 10 -10z m-50 -131 c0 -19 -1 -19 -16 -5 -8 9 -21 16
-27 17 -7 0 -3 4 8 8 25 11 35 5 35 -20z m17 -41 c-2 -13 -4 -3 -4 22 0 25 2
35 4 23 2 -13 2 -33 0 -45z m33 33 c0 -11 -4 -23 -10 -26 -6 -4 -10 5 -10 19
0 14 5 26 10 26 6 0 10 -9 10 -19z m-65 -31 c8 -13 -5 -13 -25 0 -13 8 -13 10
2 10 9 0 20 -4 23 -10z"/>
<path d="M2485 677 c-19 -15 -13 -37 11 -37 20 0 18 18 -3 23 -17 4 -17 5 0 6
9 0 17 6 17 11 0 13 -3 13 -25 -3z"/>
<path d="M4310 665 c7 -8 17 -15 22 -15 6 0 5 7 -2 15 -7 8 -17 15 -22 15 -6
0 -5 -7 2 -15z"/>
<path d="M4985 670 c3 -5 10 -10 16 -10 5 0 9 5 9 10 0 6 -7 10 -16 10 -8 0
-12 -4 -9 -10z"/>
<path d="M5765 670 c3 -5 11 -10 16 -10 6 0 7 5 4 10 -3 6 -11 10 -16 10 -6 0
-7 -4 -4 -10z"/>
<path d="M7667 673 c-4 -3 1 -12 9 -21 9 -9 19 -11 24 -6 6 6 2 14 -9 21 -10
7 -21 9 -24 6z"/>
<path d="M7873 640 c0 -25 2 -35 4 -22 2 12 2 32 0 45 -2 12 -4 2 -4 -23z"/>
<path d="M4210 660 c8 -5 20 -10 25 -10 6 0 3 5 -5 10 -8 5 -19 10 -25 10 -5
0 -3 -5 5 -10z"/>
<path d="M5023 656 c-13 -6 -23 -14 -23 -17 0 -13 39 3 44 17 3 8 4 13 3 13
-1 -1 -12 -6 -24 -13z"/>
<path d="M4174 651 c4 -5 0 -11 -6 -14 -7 -2 -10 -8 -6 -12 4 -4 14 -1 22 8
15 14 12 27 -6 27 -5 0 -7 -4 -4 -9z"/>
<path d="M5570 651 c0 -5 7 -11 15 -15 8 -3 15 -12 15 -20 0 -8 13 -16 30 -18
43 -7 57 7 21 22 -17 6 -36 18 -42 26 -13 16 -39 19 -39 5z"/>
<path d="M2440 630 c0 -5 5 -10 11 -10 5 0 7 5 4 10 -3 6 -8 10 -11 10 -2 0
-4 -4 -4 -10z"/>
<path d="M5055 631 c-3 -5 -1 -12 5 -16 5 -3 10 1 10 9 0 18 -6 21 -15 7z"/>
<path d="M7633 629 c14 -8 22 -8 30 0 8 8 3 11 -18 11 -26 -1 -28 -2 -12 -11z"/>
<path d="M3150 603 c5 -2 8 -9 4 -14 -3 -5 0 -9 6 -9 15 0 7 23 -8 26 -7 1 -8
0 -2 -3z"/>
<path d="M7378 603 c6 -2 18 -2 25 0 6 3 1 5 -13 5 -14 0 -19 -2 -12 -5z"/>
<path d="M3028 593 c-22 -5 -24 -23 -3 -23 8 0 15 4 15 10 0 5 7 7 15 4 8 -4
15 -1 15 5 0 11 -11 12 -42 4z"/>
<path d="M3080 590 c0 -5 4 -10 9 -10 6 0 13 5 16 10 3 6 -1 10 -9 10 -9 0
-16 -4 -16 -10z"/>
<path d="M3228 593 c7 -3 16 -2 19 1 4 3 -2 6 -13 5 -11 0 -14 -3 -6 -6z"/>
<path d="M3581 586 c12 -10 60 -16 54 -6 -3 5 -18 10 -32 10 -15 0 -24 -2 -22
-4z"/>
<path d="M3168 566 c-21 -5 -38 -13 -38 -18 0 -5 17 -6 38 -2 42 8 46 9 41 21
-2 5 -21 4 -41 -1z"/>
<path d="M4277 569 c8 -8 16 -8 30 0 16 9 14 10 -11 11 -22 0 -27 -3 -19 -11z"/>
<path d="M5650 576 c0 -2 16 -13 36 -25 36 -22 90 -29 79 -11 -4 6 -10 8 -15
5 -5 -3 -18 3 -30 15 -17 17 -70 29 -70 16z"/>
<path d="M2283 558 c-6 -12 49 -9 67 2 11 7 5 9 -23 7 -22 -1 -41 -5 -44 -9z"/>
<path d="M5840 562 c0 -15 24 -32 46 -32 13 0 26 -4 29 -10 8 -13 105 -13 105
0 0 10 -18 15 -95 25 -27 4 -58 11 -67 16 -10 5 -18 6 -18 1z"/>
<path d="M2630 520 c0 -5 7 -7 15 -4 8 4 15 8 15 10 0 2 -7 4 -15 4 -8 0 -15
-4 -15 -10z"/>
<path d="M2728 513 c7 -3 16 -2 19 1 4 3 -2 6 -13 5 -11 0 -14 -3 -6 -6z"/>
<path d="M3048 503 c6 -2 18 -2 25 0 6 3 1 5 -13 5 -14 0 -19 -2 -12 -5z"/>
<path d="M4053 493 c9 -2 23 -2 30 0 6 3 -1 5 -18 5 -16 0 -22 -2 -12 -5z"/>
<path d="M7625 470 c3 -5 8 -10 11 -10 2 0 4 5 4 10 0 6 -5 10 -11 10 -5 0 -7
-4 -4 -10z"/>
<path d="M2710 450 c-24 -8 -24 -8 7 -9 17 -1 35 4 38 9 7 11 -9 11 -45 0z"/>
<path d="M3604 448 c-3 -4 11 -8 30 -8 20 0 36 2 36 4 0 8 -61 12 -66 4z"/>
<path d="M4320 440 c0 -5 5 -10 10 -10 6 0 10 5 10 10 0 6 -4 10 -10 10 -5 0
-10 -4 -10 -10z"/>
<path d="M7580 446 c0 -2 7 -7 16 -10 8 -3 12 -2 9 4 -6 10 -25 14 -25 6z"/>
<path d="M7668 432 c9 -10 19 -17 21 -16 6 5 -20 34 -30 34 -5 0 -1 -8 9 -18z"/>
<path d="M7338 433 c7 -3 16 -2 19 1 4 3 -2 6 -13 5 -11 0 -14 -3 -6 -6z"/>
<path d="M3265 420 c-3 -5 -1 -10 4 -10 6 0 11 5 11 10 0 6 -2 10 -4 10 -3 0
-8 -4 -11 -10z"/>
<path d="M3308 423 c7 -3 16 -2 19 1 4 3 -2 6 -13 5 -11 0 -14 -3 -6 -6z"/>
<path d="M7520 407 c0 -8 3 -17 7 -21 11 -10 12 -37 2 -30 -5 3 -9 -4 -9 -16
0 -13 5 -20 13 -17 6 2 20 0 29 -4 11 -6 21 -4 31 5 11 11 17 12 26 3 13 -13
30 0 35 30 3 14 -3 24 -21 32 -14 7 -28 9 -31 7 -3 -3 6 -9 18 -14 l24 -9 -22
-5 c-14 -4 -20 -2 -15 5 4 6 0 8 -9 5 -10 -4 -14 0 -14 14 1 12 -5 23 -13 26
-10 3 -12 0 -8 -12 5 -12 1 -16 -14 -16 -15 0 -19 5 -15 15 3 8 1 15 -4 15 -6
0 -10 -6 -10 -13z m60 -73 c0 -8 -4 -12 -10 -9 -5 3 -10 10 -10 16 0 5 5 9 10
9 6 0 10 -7 10 -16z"/>
<path d="M3078 403 c6 -2 18 -2 25 0 6 3 1 5 -13 5 -14 0 -19 -2 -12 -5z"/>
<path d="M3458 403 c12 -2 32 -2 45 0 12 2 2 4 -23 4 -25 0 -35 -2 -22 -4z"/>
<path d="M7425 400 c-3 -5 -1 -10 4 -10 6 0 11 5 11 10 0 6 -2 10 -4 10 -3 0
-8 -4 -11 -10z"/>
<path d="M5665 379 c-3 -4 6 -11 20 -15 34 -9 40 -2 9 13 -13 6 -26 7 -29 2z"/>
<path d="M7450 380 c0 -5 7 -10 16 -10 8 0 12 5 9 10 -3 6 -10 10 -16 10 -5 0
-9 -4 -9 -10z"/>
<path d="M6075 370 c3 -6 20 -10 37 -10 38 0 34 5 -10 13 -21 4 -31 3 -27 -3z"/>
<path d="M3263 363 c9 -2 25 -2 35 0 9 3 1 5 -18 5 -19 0 -27 -2 -17 -5z"/>
<path d="M6000 360 c0 -5 5 -10 11 -10 5 0 7 5 4 10 -3 6 -8 10 -11 10 -2 0
-4 -4 -4 -10z"/>
<path d="M4398 353 c7 -3 16 -2 19 1 4 3 -2 6 -13 5 -11 0 -14 -3 -6 -6z"/>
<path d="M5727 353 c-7 -10 24 -41 62 -60 13 -7 42 -13 65 -12 l41 1 -35 10
c-50 14 -103 41 -116 57 -6 8 -13 10 -17 4z"/>
<path d="M4557 334 c3 -8 16 -14 29 -14 32 0 30 6 -5 18 -25 9 -29 8 -24 -4z"/>
<path d="M5901 346 c2 -2 30 -18 62 -35 39 -21 57 -27 57 -17 0 7 -25 23 -56
35 -54 20 -72 25 -63 17z"/>
<path d="M4665 330 c3 -5 11 -10 16 -10 6 0 7 5 4 10 -3 6 -11 10 -16 10 -6 0
-7 -4 -4 -10z"/>
<path d="M6058 333 c7 -3 16 -2 19 1 4 3 -2 6 -13 5 -11 0 -14 -3 -6 -6z"/>
<path d="M7485 330 c-3 -5 1 -10 10 -10 9 0 13 5 10 10 -3 6 -8 10 -10 10 -2
0 -7 -4 -10 -10z"/>
<path d="M4513 323 c19 -5 24 -31 5 -30 -59 2 -66 -19 -8 -25 22 -2 40 -1 40
2 0 3 16 6 35 7 25 1 35 -3 35 -13 0 -17 16 -19 23 -1 3 7 6 5 6 -5 1 -19 27
-23 51 -8 9 6 17 5 22 -3 4 -7 6 -3 6 9 -2 15 -7 20 -20 16 -11 -2 -18 -1 -17
4 5 27 -2 34 -26 28 -14 -3 -25 -2 -25 3 0 5 -18 7 -41 5 -22 -3 -46 1 -52 7
-6 6 -20 10 -31 10 -17 -1 -18 -2 -3 -6z"/>
<path d="M2725 290 c-3 -5 1 -10 9 -10 8 0 18 5 21 10 3 6 -1 10 -9 10 -8 0
-18 -4 -21 -10z"/>
<path d="M2898 293 c7 -3 16 -2 19 1 4 3 -2 6 -13 5 -11 0 -14 -3 -6 -6z"/>
<path d="M7412 295 c4 -5 3 -14 -3 -22 -10 -11 -8 -12 9 -6 26 10 29 27 5 32
-10 2 -15 0 -11 -4z"/>
<path d="M7825 290 c27 -12 43 -12 25 0 -8 5 -22 9 -30 9 -10 0 -8 -3 5 -9z"/>
<path d="M7508 283 c17 -7 15 -23 -3 -23 -8 0 -15 -4 -15 -9 0 -5 7 -11 15
-15 24 -9 17 -25 -7 -19 -19 4 -20 3 -8 -6 8 -6 23 -11 32 -11 9 0 20 -9 23
-20 3 -11 15 -20 26 -20 10 0 19 -4 19 -10 0 -14 37 -13 46 1 3 6 19 9 35 7
39 -6 37 0 -6 18 -20 8 -34 18 -31 23 3 4 -8 8 -24 8 -17 0 -30 -4 -30 -9 0
-4 -6 -8 -14 -8 -17 0 -30 30 -13 30 7 0 3 7 -7 15 -11 8 -17 18 -13 21 9 9
-12 34 -27 33 -7 0 -6 -2 2 -6z"/>
<path d="M7611 287 c2 -1 12 -9 22 -16 14 -12 17 -11 17 3 0 10 -8 16 -22 16
-12 0 -19 -1 -17 -3z"/>
<path d="M7735 282 c11 -5 36 -16 55 -26 34 -17 35 -17 5 -11 -16 3 -37 7 -47
9 -9 1 -23 7 -31 14 -7 7 -17 9 -20 5 -13 -12 -7 -23 12 -23 11 0 23 -4 26
-10 3 -5 16 -10 28 -11 20 -1 20 -2 -3 -9 -14 -4 -18 -9 -10 -9 13 -1 13 -2 0
-12 -11 -8 -12 -12 -2 -16 20 -8 14 -33 -9 -33 -11 0 -18 -4 -15 -8 3 -5 -18
-9 -47 -9 -69 -1 -89 -5 -79 -15 4 -4 23 -3 42 2 18 5 36 7 39 5 2 -3 -1 -5
-8 -5 -7 0 -9 -5 -4 -12 4 -7 9 -24 9 -38 1 -14 2 -28 3 -32 1 -3 10 -4 22 -1
14 4 22 0 25 -14 4 -16 16 -19 80 -21 69 -2 74 -1 74 19 0 11 -4 17 -10 14 -5
-3 -10 -1 -10 4 0 6 5 11 10 11 6 0 10 7 10 15 0 8 -4 15 -10 15 -5 0 -10 4
-10 9 0 10 19 9 38 -2 9 -6 12 10 11 70 0 43 -3 72 -6 66 -7 -18 -23 -16 -23
3 0 9 -7 14 -18 12 -9 -1 -31 7 -49 20 -17 12 -46 24 -65 27 -22 3 -27 2 -13
-3z"/>
<path d="M2740 270 c-12 -8 -12 -10 3 -16 9 -3 23 -2 30 4 6 5 21 12 32 15 12
3 6 5 -15 6 -19 0 -42 -3 -50 -9z"/>
<path d="M5913 273 c4 -3 26 -10 49 -14 24 -4 57 -11 73 -15 20 -4 27 -3 20 3
-5 6 -37 15 -69 22 -68 13 -82 14 -73 4z"/>
<path d="M4503 246 c-46 -16 -51 -26 -14 -26 18 0 39 6 47 14 20 20 5 26 -33
12z"/>
<path d="M7435 240 c-3 -5 3 -10 14 -10 12 0 21 5 21 10 0 6 -6 10 -14 10 -8
0 -18 -4 -21 -10z"/>
<path d="M2695 230 c-3 -5 1 -10 9 -10 9 0 16 5 16 10 0 6 -4 10 -9 10 -6 0
-13 -4 -16 -10z"/>
<path d="M3954 216 c16 -9 31 -14 34 -11 8 8 0 13 -33 20 l-30 7 29 -16z"/>
<path d="M3788 213 c6 -2 18 -2 25 0 6 3 1 5 -13 5 -14 0 -19 -2 -12 -5z"/>
<path d="M3883 213 c9 -2 23 -2 30 0 6 3 -1 5 -18 5 -16 0 -22 -2 -12 -5z"/>
<path d="M4673 208 c16 -10 -78 -21 -131 -15 -25 3 -57 1 -71 -5 -14 -5 -53
-11 -85 -14 -64 -4 -92 -18 -61 -30 11 -5 20 -3 23 4 4 14 32 16 32 3 0 -5
-26 -15 -57 -21 -32 -6 -76 -15 -98 -21 -22 -5 -96 -18 -165 -29 -69 -10 -146
-24 -172 -30 -27 -6 -99 -20 -160 -30 l-113 -19 200 1 c110 1 203 5 206 10 3
5 37 13 75 17 38 4 78 12 89 16 18 8 18 7 6 -8 -7 -9 -24 -17 -37 -17 -13 0
-24 -4 -24 -10 0 -7 147 -10 421 -10 l420 0 -46 57 c-26 32 -55 62 -66 67 -10
5 -19 13 -19 18 0 4 -16 8 -36 8 -21 0 -33 -4 -29 -10 4 -6 -8 -13 -25 -17
-23 -4 -28 -8 -18 -15 9 -6 6 -7 -9 -3 -13 4 -23 2 -23 -4 0 -6 -7 -8 -15 -5
-23 9 -18 21 12 29 19 4 23 9 14 14 -8 6 4 11 33 15 25 4 46 10 46 14 0 4 3
17 6 29 6 21 4 22 -64 20 -38 -1 -65 -5 -59 -9z m-116 -34 c-3 -3 -12 -4 -19
-1 -8 3 -5 6 6 6 11 1 17 -2 13 -5z m-107 -8 c0 -3 -4 -8 -10 -11 -5 -3 -10
-1 -10 4 0 6 5 11 10 11 6 0 10 -2 10 -4z m237 -32 c-4 -4 -17 -8 -29 -9 -13
-1 -27 -3 -32 -4 -4 0 -6 -8 -2 -16 3 -8 1 -15 -4 -15 -6 0 -10 4 -10 9 0 14
-67 8 -82 -7 -14 -14 -45 -15 -73 -1 -17 8 -16 9 7 6 15 -2 29 -1 30 3 4 8
132 37 172 39 16 0 26 -2 23 -5z m-127 -44 c0 -5 -4 -10 -10 -10 -5 0 -10 5
-10 10 0 6 5 10 10 10 6 0 10 -4 10 -10z m-115 -10 l20 -9 -20 0 c-11 0 -29 4
-40 9 l-20 9 20 0 c11 0 29 -4 40 -9z m-65 -12 c0 -4 -11 -8 -25 -8 -14 0 -25
4 -25 10 0 5 11 9 25 8 14 -1 25 -6 25 -10z m-103 -14 c-3 -3 -12 -4 -19 -1
-8 3 -5 6 6 6 11 1 17 -2 13 -5z m180 -40 c-3 -3 -12 -4 -19 -1 -8 3 -5 6 6 6
11 1 17 -2 13 -5z"/>
<path d="M7360 205 c0 -8 5 -15 10 -15 6 0 10 7 10 15 0 8 -4 15 -10 15 -5 0
-10 -7 -10 -15z"/>
<path d="M3595 190 c-3 -5 1 -10 10 -10 9 0 13 5 10 10 -3 6 -8 10 -10 10 -2
0 -7 -4 -10 -10z"/>
<path d="M3645 190 c-3 -5 3 -10 15 -10 12 0 18 5 15 10 -3 6 -10 10 -15 10
-5 0 -12 -4 -15 -10z"/>
<path d="M3881 189 c-13 -5 -32 -7 -41 -4 -9 3 -23 -2 -30 -10 -11 -14 -6 -15
48 -11 63 4 82 10 82 27 0 11 -28 11 -59 -2z"/>
<path d="M5850 192 c0 -15 42 -39 78 -44 46 -7 39 6 -15 28 -27 11 -51 21 -55
22 -5 2 -8 -1 -8 -6z"/>
<path d="M7455 180 c3 -5 -1 -10 -10 -10 -9 0 -14 -4 -10 -10 3 -5 13 -6 21
-3 9 3 21 -3 30 -16 17 -24 34 -28 34 -8 0 8 -11 20 -25 27 -14 7 -25 17 -25
22 0 4 -5 8 -11 8 -5 0 -7 -4 -4 -10z"/>
<path d="M2610 170 c-11 -7 -7 -10 18 -10 17 0 32 5 32 10 0 13 -30 13 -50 0z"/>
<path d="M3445 150 c-7 -12 2 -12 30 0 19 8 19 9 -2 9 -12 1 -25 -3 -28 -9z"/>
<path d="M7440 132 c0 -10 60 -35 68 -28 3 4 -4 9 -16 13 -12 3 -19 9 -16 14
3 5 -4 9 -15 9 -12 0 -21 -3 -21 -8z"/>
<path d="M2258 123 c7 -3 16 -2 19 1 4 3 -2 6 -13 5 -11 0 -14 -3 -6 -6z"/>
<path d="M7291 121 c-7 -5 -12 -13 -10 -18 2 -5 12 -1 22 9 18 19 12 24 -12 9z"/>
<path d="M3220 116 c0 -2 9 -6 20 -9 11 -3 20 -1 20 4 0 5 -9 9 -20 9 -11 0
-20 -2 -20 -4z"/>
<path d="M3658 113 c7 -3 16 -2 19 1 4 3 -2 6 -13 5 -11 0 -14 -3 -6 -6z"/>
<path d="M7530 108 c1 -50 39 -89 66 -67 11 9 14 8 14 -3 0 -18 47 -45 57 -33
5 4 3 10 -4 12 -28 10 -64 46 -59 60 3 8 1 11 -4 8 -6 -3 -10 -13 -10 -21 0
-8 -4 -14 -8 -14 -14 0 -32 23 -32 41 0 10 -4 21 -10 24 -5 3 -10 0 -10 -7z"/>
<path d="M3400 100 c0 -5 7 -10 16 -10 8 0 12 5 9 10 -3 6 -10 10 -16 10 -5 0
-9 -4 -9 -10z"/>
<path d="M3440 98 c0 -5 14 -8 30 -8 17 0 30 4 30 10 0 5 -13 8 -30 7 -16 -1
-30 -5 -30 -9z"/>
<path d="M2095 91 c-29 -4 -35 -8 -22 -13 9 -4 29 -3 44 3 14 5 32 8 40 5 7
-3 13 -1 13 4 0 11 -12 11 -75 1z"/>
<path d="M5825 90 c-4 -6 3 -10 14 -10 25 0 27 6 6 13 -8 4 -17 2 -20 -3z"/>
<path d="M5895 84 c11 -3 24 -10 30 -15 5 -5 18 -9 29 -9 34 0 4 18 -39 24
-22 3 -31 3 -20 0z"/>
<path d="M3118 73 c7 -3 16 -2 19 1 4 3 -2 6 -13 5 -11 0 -14 -3 -6 -6z"/>
<path d="M6020 60 c0 -5 7 -10 16 -10 8 0 12 5 9 10 -3 6 -10 10 -16 10 -5 0
-9 -4 -9 -10z"/>
<path d="M3178 41 c-47 -7 -66 -16 -56 -26 3 -3 16 -2 29 3 13 5 48 12 77 16
44 6 52 4 52 -10 0 -13 3 -14 15 -4 8 7 15 16 15 21 0 10 -60 10 -132 0z"/>
<path d="M3378 43 c7 -3 16 -2 19 1 4 3 -2 6 -13 5 -11 0 -14 -3 -6 -6z"/>
<path d="M7120 35 c0 -8 -6 -15 -12 -15 -9 0 -8 -4 2 -10 26 -17 40 -11 40 15
0 16 -6 25 -15 25 -8 0 -15 -7 -15 -15z"/>
<path d="M7897 37 c-3 -8 -1 -20 4 -28 6 -10 9 -7 9 14 0 29 -5 35 -13 14z"/>
<path d="M1638 3 c7 -3 16 -2 19 1 4 3 -2 6 -13 5 -11 0 -14 -3 -6 -6z"/>
</g>
</svg>
